<svg width="201" height="189" viewBox="0 0 201 189" fill="none" xmlns="http://www.w3.org/2000/svg">
<path opacity="0.2" d="M64.8604 99.4134L121.471 132.323L177.852 99.1849L121.242 66.5042L64.8604 99.4134Z" fill="black"/>
<path d="M120.096 58.7339V130.037L170.289 101.242V29.2527L120.096 58.7339Z" fill="url(#paint0_linear_1857_1144)"/>
<path d="M120.326 58.7339V130.037L69.9033 101.013V29.2527L120.326 58.7339Z" fill="url(#paint1_linear_1857_1144)"/>
<path d="M69.9033 29.2527L120.326 58.7339L170.289 29.2527L119.867 0L69.9033 29.2527Z" fill="url(#paint2_linear_1857_1144)"/>
<path d="M141.181 46.3931V117.925L150.348 112.897V40.9082L141.181 46.3931Z" fill="url(#paint3_linear_1857_1144)"/>
<path d="M90.5303 16.9116L141.411 46.3929L150.349 40.908L99.4687 11.4268L90.5303 16.9116Z" fill="url(#paint4_linear_1857_1144)"/>
<path d="M99.2402 46.6213V117.925L90.3018 113.126V41.365L99.2402 46.6213Z" fill="url(#paint5_linear_1857_1144)"/>
<path d="M149.433 17.1401L99.0111 46.6214L90.3018 41.365L140.724 11.8838L149.433 17.1401Z" fill="url(#paint6_linear_1857_1144)"/>
<path d="M127.201 30.1669L119.18 25.5962C119.18 25.5962 127.431 13.9408 134.994 10.2842C139.578 7.99886 144.849 10.9698 146.454 14.1693C147.37 16.2262 145.078 19.6542 142.557 21.254C135.682 25.3676 127.201 30.1669 127.201 30.1669Z" fill="url(#paint7_linear_1857_1144)"/>
<path d="M142.557 15.0837C143.703 14.3981 145.078 14.1695 146.454 14.3981C144.849 10.97 139.578 8.22759 134.994 10.2844C127.431 13.941 119.18 25.5964 119.18 25.5964L126.972 30.1671C128.347 28.3388 135.681 18.2832 142.557 15.0837Z" fill="url(#paint8_linear_1857_1144)"/>
<path d="M113.219 30.3954L121.241 25.8247C121.241 25.8247 112.99 14.1693 105.426 10.5127C100.843 8.22737 95.5712 11.1984 93.9669 14.3979C93.0501 16.4547 95.342 19.8827 97.8631 21.4825C104.739 25.5962 113.219 30.3954 113.219 30.3954Z" fill="url(#paint9_linear_1857_1144)"/>
<path d="M97.8631 15.312C96.7171 14.6263 95.3419 14.3978 93.9668 14.6264C95.5711 11.1983 100.843 8.45586 105.426 10.5127C112.99 14.1693 121.241 25.8246 121.241 25.8246L113.448 30.3954C112.302 28.5671 104.739 18.74 97.8631 15.312Z" fill="url(#paint10_linear_1857_1144)"/>
<path d="M125.367 28.3385C125.367 28.3385 132.014 26.9673 137.285 28.567C144.161 30.3953 148.516 37.0229 145.307 39.7653C141.869 42.2792 138.431 44.7931 134.764 42.7363C131.097 40.6795 118.033 33.1377 118.033 33.1377L125.367 28.3385Z" fill="url(#paint11_linear_1857_1144)"/>
<path d="M130.18 33.1377C124.909 31.538 118.262 32.9092 118.262 32.9092L118.033 33.1377L125.597 28.3385C125.597 28.3385 132.243 26.9673 137.515 28.567C144.39 30.3953 148.745 37.0229 145.536 39.7653C143.474 41.3651 141.411 42.7363 139.348 43.4219C140.494 40.2224 136.369 34.966 130.18 33.1377Z" fill="url(#paint12_linear_1857_1144)"/>
<path d="M124.679 28.5669L122.616 26.7386C121.241 25.5959 119.408 25.5959 118.262 26.7386L115.97 28.7954L120.095 31.7664L124.679 28.5669Z" fill="url(#paint13_linear_1857_1144)"/>
<path d="M114.596 28.3385C114.596 28.3385 107.949 26.9673 102.678 28.567C95.8021 30.3953 91.4474 37.0229 94.6561 39.7653C98.094 42.2792 101.532 44.7931 105.199 42.7363C108.866 40.6795 121.93 33.1377 121.93 33.1377L114.596 28.3385Z" fill="url(#paint14_linear_1857_1144)"/>
<path d="M109.553 33.1377C114.824 31.538 121.471 32.9092 121.471 32.9092L121.7 33.1377L114.137 28.3385C114.137 28.3385 107.49 26.9673 102.219 28.567C95.3431 30.3953 90.9884 37.0229 94.1971 39.7653C96.2598 41.3651 98.3226 42.7363 100.385 43.4219C99.4685 40.2224 103.594 34.966 109.553 33.1377Z" fill="url(#paint15_linear_1857_1144)"/>
<path opacity="0.2" d="M37.3574 132.78L82.9666 159.519L128.347 132.78L82.7374 106.27L37.3574 132.78Z" fill="black"/>
<path d="M81.8203 119.982V157.691L122.387 134.151V96.2141L81.8203 119.982Z" fill="url(#paint16_linear_1857_1144)"/>
<path d="M82.05 119.982V157.691L41.2539 134.151V96.2141L82.05 119.982Z" fill="url(#paint17_linear_1857_1144)"/>
<path d="M41.2539 96.2141L82.05 119.982L122.388 96.2141L81.5917 72.6748L41.2539 96.2141Z" fill="url(#paint18_linear_1857_1144)"/>
<path d="M99.0098 110.155V147.635L106.344 143.75V105.812L99.0098 110.155Z" fill="url(#paint19_linear_1857_1144)"/>
<path d="M57.9844 86.1583L99.0097 110.155L106.344 105.812L65.3185 82.0447L57.9844 86.1583Z" fill="url(#paint20_linear_1857_1144)"/>
<path d="M64.8608 110.383V147.863L57.7559 143.978V106.041L64.8608 110.383Z" fill="url(#paint21_linear_1857_1144)"/>
<path d="M105.657 86.3869L64.8608 110.383L57.7559 106.041L98.552 82.2732L105.657 86.3869Z" fill="url(#paint22_linear_1857_1144)"/>
<path d="M87.5499 96.8998L80.9033 93.0146C80.9033 93.0146 87.5499 83.6446 93.7381 80.6736C97.4052 78.8454 101.76 81.1307 102.906 83.8732C103.593 85.4729 101.989 88.2154 99.9263 89.5866C94.4256 93.2432 87.5499 96.8998 87.5499 96.8998Z" fill="url(#paint23_linear_1857_1144)"/>
<path d="M99.9259 84.7873C100.843 84.3302 101.989 84.1017 102.905 84.1017C101.53 81.3592 97.4048 79.0739 93.5086 80.9022C87.3204 83.8731 80.6738 93.2431 80.6738 93.2431L87.0912 96.8997C88.4664 95.5285 94.4253 87.5297 99.9259 84.7873Z" fill="url(#paint24_linear_1857_1144)"/>
<path d="M76.3201 97.1283L82.9667 93.2431C82.9667 93.2431 76.3201 83.8731 70.1319 80.9022C66.4649 79.0739 62.1102 81.3592 60.9643 84.1017C60.2767 85.7014 61.881 88.4439 63.9438 89.8151C69.4444 93.4717 76.3201 97.1283 76.3201 97.1283Z" fill="url(#paint25_linear_1857_1144)"/>
<path d="M63.9434 85.0158C63.0266 84.5587 61.8806 84.3302 60.9639 84.3302C62.339 81.5878 66.4645 79.3024 70.3608 81.1307C76.5489 84.1017 83.1955 93.4717 83.1955 93.4717L76.7781 97.1282C75.403 95.757 69.444 87.7582 63.9434 85.0158Z" fill="url(#paint26_linear_1857_1144)"/>
<path d="M86.1758 95.5284C86.1758 95.5284 91.6764 94.3857 95.8018 95.7569C101.302 97.3567 104.97 102.613 102.219 104.67C99.4689 106.727 96.7186 108.784 93.7391 107.184C90.7596 105.584 80.2168 99.4135 80.2168 99.4135L86.1758 95.5284Z" fill="url(#paint27_linear_1857_1144)"/>
<path d="M90.072 99.4135C85.7174 98.2708 80.446 99.185 80.446 99.185L80.2168 99.4135L86.1758 95.5284C86.1758 95.5284 91.6764 94.3857 95.8018 95.7569C101.302 97.3567 104.97 102.613 102.219 104.67C100.615 106.041 99.0105 107.184 97.177 107.641C98.3229 105.127 94.8851 100.785 90.072 99.4135Z" fill="url(#paint28_linear_1857_1144)"/>
<path d="M85.4875 95.757L83.6539 94.1573C82.508 93.2431 81.1328 93.2431 79.9869 94.1573L78.1533 95.757L81.5912 98.271L85.4875 95.757Z" fill="url(#paint29_linear_1857_1144)"/>
<path d="M77.465 95.5284C77.465 95.5284 71.9644 94.3857 67.839 95.7569C62.3384 97.3567 58.6713 102.613 61.4216 104.67C64.1719 106.727 66.9222 108.784 69.9017 107.184C72.8812 105.584 83.424 99.4135 83.424 99.4135L77.465 95.5284Z" fill="url(#paint30_linear_1857_1144)"/>
<path d="M73.3403 99.4135C77.6949 98.2708 82.9663 99.185 82.9663 99.185L83.1955 99.4135L77.2365 95.5284C77.2365 95.5284 71.7359 94.3857 67.6105 95.7569C62.1099 97.3567 58.4428 102.613 61.1931 104.67C62.7974 106.041 64.4018 107.184 66.2353 107.641C65.0893 105.127 68.5272 100.785 73.3403 99.4135Z" fill="url(#paint31_linear_1857_1144)"/>
<path opacity="0.2" d="M114.824 140.55L157.912 165.689L201 140.321L157.912 115.411L114.824 140.55Z" fill="black"/>
<path d="M156.995 140.55V163.861L195.27 141.921V118.153L156.995 140.55Z" fill="url(#paint32_linear_1857_1144)"/>
<path d="M156.996 140.55V163.861L118.721 141.693V118.153L156.996 140.55Z" fill="url(#paint33_linear_1857_1144)"/>
<path d="M118.721 118.153L156.996 140.55L195.271 118.153L156.767 95.9854L118.721 118.153Z" fill="url(#paint34_linear_1857_1144)"/>
<path d="M173.039 131.18V154.491L180.144 150.605V127.066L173.039 131.18Z" fill="url(#paint35_linear_1857_1144)"/>
<path d="M134.534 108.783L173.038 131.18L180.143 127.066L141.41 104.67L134.534 108.783Z" fill="url(#paint36_linear_1857_1144)"/>
<path d="M140.952 131.408V154.719L134.306 150.834V127.295L140.952 131.408Z" fill="url(#paint37_linear_1857_1144)"/>
<path d="M179.456 109.012L140.952 131.408L134.306 127.295L172.581 104.898L179.456 109.012Z" fill="url(#paint38_linear_1857_1144)"/>
<path d="M162.498 118.839L156.31 115.182C156.31 115.182 162.498 106.269 168.457 103.527C171.895 101.927 176.02 103.984 177.166 106.498C177.854 108.098 176.249 110.611 174.187 111.754C168.915 115.182 162.498 118.839 162.498 118.839Z" fill="url(#paint39_linear_1857_1144)"/>
<path d="M174.187 107.412C175.103 106.955 176.02 106.726 177.166 106.726C176.02 104.212 171.895 101.927 168.457 103.755C162.727 106.498 156.31 115.411 156.31 115.411L162.269 118.839C163.185 117.468 168.915 109.926 174.187 107.412Z" fill="url(#paint40_linear_1857_1144)"/>
<path d="M151.724 119.068L157.913 115.411C157.913 115.411 151.724 106.498 145.765 103.756C142.327 102.156 138.202 104.213 137.056 106.727C136.368 108.326 137.973 110.84 140.036 111.983C145.307 115.411 151.724 119.068 151.724 119.068Z" fill="url(#paint41_linear_1857_1144)"/>
<path d="M140.035 107.641C139.118 107.184 138.202 106.955 137.056 106.955C138.202 104.441 142.327 102.156 145.765 103.984C151.495 106.727 157.912 115.64 157.912 115.64L151.953 119.068C151.036 117.696 145.307 110.155 140.035 107.641Z" fill="url(#paint42_linear_1857_1144)"/>
<path d="M160.892 117.468C160.892 117.468 165.934 116.554 170.06 117.696C175.331 119.068 178.769 124.095 176.019 126.152C173.497 128.209 170.747 130.037 167.997 128.438C165.247 126.838 155.162 121.124 155.162 121.124L160.892 117.468Z" fill="url(#paint43_linear_1857_1144)"/>
<path d="M164.788 121.124C160.662 119.982 155.62 120.896 155.62 120.896L155.391 121.124L161.12 117.468C161.12 117.468 166.163 116.554 170.288 117.696C175.559 119.068 178.997 124.095 176.247 126.152C174.643 127.295 173.038 128.438 171.434 128.895C172.58 126.609 169.371 122.496 164.788 121.124Z" fill="url(#paint44_linear_1857_1144)"/>
<path d="M160.433 117.696L158.829 116.325C157.912 115.411 156.308 115.411 155.391 116.325L153.558 117.925L156.766 120.21L160.433 117.696Z" fill="url(#paint45_linear_1857_1144)"/>
<path d="M152.642 117.468C152.642 117.468 147.6 116.554 143.474 117.696C138.203 119.068 134.765 124.095 137.515 126.152C140.036 128.209 142.787 130.037 145.537 128.438C148.287 126.838 158.372 121.124 158.372 121.124L152.642 117.468Z" fill="url(#paint46_linear_1857_1144)"/>
<path d="M148.975 121.124C153.1 119.982 158.142 120.896 158.142 120.896L158.372 121.124L152.642 117.468C152.642 117.468 147.6 116.554 143.474 117.696C138.203 119.068 134.765 124.095 137.515 126.152C139.12 127.295 140.724 128.438 142.328 128.895C141.182 126.609 144.391 122.496 148.975 121.124Z" fill="url(#paint47_linear_1857_1144)"/>
<g opacity="0.8">
<path opacity="0.6" d="M20.3984 171.403L30.7121 177.116L35.5251 174.374L25.4407 168.432L20.3984 171.403Z" fill="white"/>
<path opacity="0.8" d="M28.1904 166.832L38.2749 172.774L43.7755 169.574L33.6911 163.632L28.1904 166.832Z" fill="white"/>
<path opacity="0.3" d="M5.04297 180.087L15.3566 186.029L19.2529 183.744L8.93922 177.802L5.04297 180.087Z" fill="white"/>
<path opacity="0.15" d="M0 183.058L10.0844 189L12.1471 188.086L1.83351 182.144L0 183.058Z" fill="white"/>
<path opacity="0.5" d="M12.834 175.745L23.1476 181.687L27.5023 179.173L17.1887 173.231L12.834 175.745Z" fill="white"/>
<path opacity="0.8" d="M27.2744 157.005L55.0067 173.002L60.278 154.034L27.2744 157.005Z" fill="white"/>
</g>
<defs>
<linearGradient id="paint0_linear_1857_1144" x1="134.456" y1="82.9211" x2="275.953" y2="40.4309" gradientUnits="userSpaceOnUse">
<stop offset="0.0353535" stop-color="#9F19AB"/>
<stop offset="0.2438" stop-color="#AE25B1"/>
<stop offset="0.6455" stop-color="#D744BF"/>
<stop offset="1" stop-color="#FF63CE"/>
</linearGradient>
<linearGradient id="paint1_linear_1857_1144" x1="3.62835" y1="100.102" x2="190.378" y2="58.1192" gradientUnits="userSpaceOnUse">
<stop offset="0.0353535" stop-color="#9F19AB"/>
<stop offset="0.2438" stop-color="#AE25B1"/>
<stop offset="0.6455" stop-color="#D744BF"/>
<stop offset="1" stop-color="#FF63CE"/>
</linearGradient>
<linearGradient id="paint2_linear_1857_1144" x1="172.448" y1="-70.2871" x2="116.305" y2="37.0158" gradientUnits="userSpaceOnUse">
<stop offset="0.0353535" stop-color="#9F19AB"/>
<stop offset="0.2438" stop-color="#AE25B1"/>
<stop offset="0.6455" stop-color="#D744BF"/>
<stop offset="1" stop-color="#FF63CE"/>
</linearGradient>
<linearGradient id="paint3_linear_1857_1144" x1="141.526" y1="80.7353" x2="198.393" y2="63.6587" gradientUnits="userSpaceOnUse">
<stop offset="0.0353535" stop-color="#138BBD"/>
<stop offset="0.2257" stop-color="#169AC7"/>
<stop offset="0.5946" stop-color="#1FC3DF"/>
<stop offset="1" stop-color="#2AF6FF"/>
</linearGradient>
<linearGradient id="paint4_linear_1857_1144" x1="131.51" y1="7.98431" x2="118.941" y2="32.008" gradientUnits="userSpaceOnUse">
<stop offset="0.0353535" stop-color="#138BBD"/>
<stop offset="0.2257" stop-color="#169AC7"/>
<stop offset="0.5946" stop-color="#1FC3DF"/>
<stop offset="1" stop-color="#2AF6FF"/>
</linearGradient>
<linearGradient id="paint5_linear_1857_1144" x1="134.67" y1="88.5809" x2="53.0223" y2="70.2259" gradientUnits="userSpaceOnUse">
<stop offset="0.0353535" stop-color="#138BBD"/>
<stop offset="0.2257" stop-color="#169AC7"/>
<stop offset="0.5946" stop-color="#1FC3DF"/>
<stop offset="1" stop-color="#2AF6FF"/>
</linearGradient>
<linearGradient id="paint6_linear_1857_1144" x1="109.046" y1="8.63423" x2="121.398" y2="32.2433" gradientUnits="userSpaceOnUse">
<stop offset="0.0353535" stop-color="#138BBD"/>
<stop offset="0.2257" stop-color="#169AC7"/>
<stop offset="0.5946" stop-color="#1FC3DF"/>
<stop offset="1" stop-color="#2AF6FF"/>
</linearGradient>
<linearGradient id="paint7_linear_1857_1144" x1="130.617" y1="17.1467" x2="143.243" y2="31.7789" gradientUnits="userSpaceOnUse">
<stop offset="0.0353535" stop-color="#138BBD"/>
<stop offset="0.2257" stop-color="#169AC7"/>
<stop offset="0.5946" stop-color="#1FC3DF"/>
<stop offset="1" stop-color="#2AF6FF"/>
</linearGradient>
<linearGradient id="paint8_linear_1857_1144" x1="125.898" y1="29.1501" x2="143.474" y2="5.21109" gradientUnits="userSpaceOnUse">
<stop offset="0.0353535" stop-color="#1BB0D4"/>
<stop offset="0.203" stop-color="#1EBFDD"/>
<stop offset="0.5265" stop-color="#27E8F6"/>
<stop offset="0.6313" stop-color="#2AF6FF"/>
<stop offset="0.8737" stop-color="#1BB0D4"/>
</linearGradient>
<linearGradient id="paint9_linear_1857_1144" x1="109.835" y1="17.4927" x2="97.2092" y2="32.1251" gradientUnits="userSpaceOnUse">
<stop offset="0.0353535" stop-color="#138BBD"/>
<stop offset="0.2257" stop-color="#169AC7"/>
<stop offset="0.5946" stop-color="#1FC3DF"/>
<stop offset="1" stop-color="#2AF6FF"/>
</linearGradient>
<linearGradient id="paint10_linear_1857_1144" x1="114.554" y1="29.4961" x2="96.978" y2="5.55705" gradientUnits="userSpaceOnUse">
<stop offset="0.0353535" stop-color="#1BB0D4"/>
<stop offset="0.203" stop-color="#1EBFDD"/>
<stop offset="0.5265" stop-color="#27E8F6"/>
<stop offset="0.6313" stop-color="#2AF6FF"/>
<stop offset="0.8737" stop-color="#1BB0D4"/>
</linearGradient>
<linearGradient id="paint11_linear_1857_1144" x1="133.486" y1="28.7626" x2="130.314" y2="44.8599" gradientUnits="userSpaceOnUse">
<stop offset="0.0353535" stop-color="#138BBD"/>
<stop offset="0.2257" stop-color="#169AC7"/>
<stop offset="0.5946" stop-color="#1FC3DF"/>
<stop offset="1" stop-color="#2AF6FF"/>
</linearGradient>
<linearGradient id="paint12_linear_1857_1144" x1="127.463" y1="27.5633" x2="138.536" y2="43.9135" gradientUnits="userSpaceOnUse">
<stop offset="0.0353535" stop-color="#1BB0D4"/>
<stop offset="0.203" stop-color="#1EBFDD"/>
<stop offset="0.5265" stop-color="#27E8F6"/>
<stop offset="0.6313" stop-color="#2AF6FF"/>
<stop offset="0.8737" stop-color="#1BB0D4"/>
</linearGradient>
<linearGradient id="paint13_linear_1857_1144" x1="120.29" y1="34.9289" x2="120.29" y2="26.1974" gradientUnits="userSpaceOnUse">
<stop offset="0.0353535" stop-color="#138BBD"/>
<stop offset="0.2257" stop-color="#169AC7"/>
<stop offset="0.5946" stop-color="#1FC3DF"/>
<stop offset="1" stop-color="#2AF6FF"/>
</linearGradient>
<linearGradient id="paint14_linear_1857_1144" x1="106.412" y1="28.7626" x2="109.584" y2="44.8596" gradientUnits="userSpaceOnUse">
<stop offset="0.0353535" stop-color="#138BBD"/>
<stop offset="0.2257" stop-color="#169AC7"/>
<stop offset="0.5946" stop-color="#1FC3DF"/>
<stop offset="1" stop-color="#2AF6FF"/>
</linearGradient>
<linearGradient id="paint15_linear_1857_1144" x1="112.434" y1="27.5633" x2="101.362" y2="43.9135" gradientUnits="userSpaceOnUse">
<stop offset="0.0353535" stop-color="#1BB0D4"/>
<stop offset="0.203" stop-color="#1EBFDD"/>
<stop offset="0.5265" stop-color="#27E8F6"/>
<stop offset="0.6313" stop-color="#2AF6FF"/>
<stop offset="0.8737" stop-color="#1BB0D4"/>
</linearGradient>
<linearGradient id="paint16_linear_1857_1144" x1="94.2375" y1="129.302" x2="197.834" y2="98.1925" gradientUnits="userSpaceOnUse">
<stop offset="0.0353535" stop-color="#6B24D6"/>
<stop offset="0.2945" stop-color="#7733DC"/>
<stop offset="0.7943" stop-color="#975CED"/>
<stop offset="1" stop-color="#A56EF4"/>
</linearGradient>
<linearGradient id="paint17_linear_1857_1144" x1="-5.28966" y1="141.872" x2="131.374" y2="111.148" gradientUnits="userSpaceOnUse">
<stop offset="0.0353535" stop-color="#6B24D6"/>
<stop offset="0.2945" stop-color="#7733DC"/>
<stop offset="0.7943" stop-color="#975CED"/>
<stop offset="1" stop-color="#A56EF4"/>
</linearGradient>
<linearGradient id="paint18_linear_1857_1144" x1="124.1" y1="15.9166" x2="78.7761" y2="102.542" gradientUnits="userSpaceOnUse">
<stop offset="0.0353535" stop-color="#6B24D6"/>
<stop offset="0.2945" stop-color="#7733DC"/>
<stop offset="0.7943" stop-color="#975CED"/>
<stop offset="1" stop-color="#A56EF4"/>
</linearGradient>
<linearGradient id="paint19_linear_1857_1144" x1="99.946" y1="127.537" x2="135.22" y2="116.944" gradientUnits="userSpaceOnUse">
<stop offset="0.0353535" stop-color="#FFA98C"/>
<stop offset="0.3169" stop-color="#FFB892"/>
<stop offset="0.8601" stop-color="#FEE1A3"/>
<stop offset="1" stop-color="#FEECA8"/>
</linearGradient>
<linearGradient id="paint20_linear_1857_1144" x1="91.0506" y1="79.105" x2="80.9032" y2="98.4992" gradientUnits="userSpaceOnUse">
<stop offset="0.0353535" stop-color="#FFA98C"/>
<stop offset="0.3169" stop-color="#FFB892"/>
<stop offset="0.8601" stop-color="#FEE1A3"/>
<stop offset="1" stop-color="#FEECA8"/>
</linearGradient>
<linearGradient id="paint21_linear_1857_1144" x1="86.703" y1="132.57" x2="34.8885" y2="120.922" gradientUnits="userSpaceOnUse">
<stop offset="0.0353535" stop-color="#FFA98C"/>
<stop offset="0.3169" stop-color="#FFB892"/>
<stop offset="0.8601" stop-color="#FEE1A3"/>
<stop offset="1" stop-color="#FEECA8"/>
</linearGradient>
<linearGradient id="paint22_linear_1857_1144" x1="72.9146" y1="79.6299" x2="82.8868" y2="98.6894" gradientUnits="userSpaceOnUse">
<stop offset="0.0353535" stop-color="#FFA98C"/>
<stop offset="0.3169" stop-color="#FFB892"/>
<stop offset="0.8601" stop-color="#FEE1A3"/>
<stop offset="1" stop-color="#FEECA8"/>
</linearGradient>
<linearGradient id="paint23_linear_1857_1144" x1="90.3288" y1="86.502" x2="100.522" y2="98.3147" gradientUnits="userSpaceOnUse">
<stop offset="0.0353535" stop-color="#FFA98C"/>
<stop offset="0.3169" stop-color="#FFB892"/>
<stop offset="0.8601" stop-color="#FEE1A3"/>
<stop offset="1" stop-color="#FEECA8"/>
</linearGradient>
<linearGradient id="paint24_linear_1857_1144" x1="86.5189" y1="96.1922" x2="100.708" y2="76.866" gradientUnits="userSpaceOnUse">
<stop offset="0.0353535" stop-color="#F7AA90"/>
<stop offset="0.2316" stop-color="#F9B996"/>
<stop offset="0.6103" stop-color="#FFE2A6"/>
<stop offset="0.6313" stop-color="#FFE4A7"/>
<stop offset="0.8737" stop-color="#F7AA90"/>
</linearGradient>
<linearGradient id="paint25_linear_1857_1144" x1="73.5536" y1="86.7813" x2="63.3607" y2="98.5942" gradientUnits="userSpaceOnUse">
<stop offset="0.0353535" stop-color="#FFA98C"/>
<stop offset="0.3169" stop-color="#FFB892"/>
<stop offset="0.8601" stop-color="#FEE1A3"/>
<stop offset="1" stop-color="#FEECA8"/>
</linearGradient>
<linearGradient id="paint26_linear_1857_1144" x1="77.3625" y1="96.4714" x2="63.1738" y2="77.1455" gradientUnits="userSpaceOnUse">
<stop offset="0.0353535" stop-color="#F7AA90"/>
<stop offset="0.2316" stop-color="#F9B996"/>
<stop offset="0.6103" stop-color="#FFE2A6"/>
<stop offset="0.6313" stop-color="#FFE4A7"/>
<stop offset="0.8737" stop-color="#F7AA90"/>
</linearGradient>
<linearGradient id="paint27_linear_1857_1144" x1="92.647" y1="95.8794" x2="90.085" y2="108.875" gradientUnits="userSpaceOnUse">
<stop offset="0.0353535" stop-color="#FFA98C"/>
<stop offset="0.3169" stop-color="#FFB892"/>
<stop offset="0.8601" stop-color="#FEE1A3"/>
<stop offset="1" stop-color="#FEECA8"/>
</linearGradient>
<linearGradient id="paint28_linear_1857_1144" x1="87.7845" y1="94.9113" x2="96.7234" y2="108.111" gradientUnits="userSpaceOnUse">
<stop offset="0.0353535" stop-color="#F7AA90"/>
<stop offset="0.2316" stop-color="#F9B996"/>
<stop offset="0.6103" stop-color="#FFE2A6"/>
<stop offset="0.6313" stop-color="#FFE4A7"/>
<stop offset="0.8737" stop-color="#F7AA90"/>
</linearGradient>
<linearGradient id="paint29_linear_1857_1144" x1="81.9932" y1="100.858" x2="81.9932" y2="93.8088" gradientUnits="userSpaceOnUse">
<stop offset="0.0353535" stop-color="#FFA98C"/>
<stop offset="0.3169" stop-color="#FFB892"/>
<stop offset="0.8601" stop-color="#FEE1A3"/>
<stop offset="1" stop-color="#FEECA8"/>
</linearGradient>
<linearGradient id="paint30_linear_1857_1144" x1="70.7873" y1="95.8794" x2="73.3488" y2="108.875" gradientUnits="userSpaceOnUse">
<stop offset="0.0353535" stop-color="#FFA98C"/>
<stop offset="0.3169" stop-color="#FFB892"/>
<stop offset="0.8601" stop-color="#FEE1A3"/>
<stop offset="1" stop-color="#FEECA8"/>
</linearGradient>
<linearGradient id="paint31_linear_1857_1144" x1="75.6505" y1="94.9113" x2="66.7121" y2="108.111" gradientUnits="userSpaceOnUse">
<stop offset="0.0353535" stop-color="#F7AA90"/>
<stop offset="0.2316" stop-color="#F9B996"/>
<stop offset="0.6103" stop-color="#FFE2A6"/>
<stop offset="0.6313" stop-color="#FFE4A7"/>
<stop offset="0.8737" stop-color="#F7AA90"/>
</linearGradient>
<linearGradient id="paint32_linear_1857_1144" x1="169.162" y1="143.104" x2="260.511" y2="115.672" gradientUnits="userSpaceOnUse">
<stop offset="0.0353535" stop-color="#138BBD"/>
<stop offset="0.2257" stop-color="#169AC7"/>
<stop offset="0.5946" stop-color="#1FC3DF"/>
<stop offset="1" stop-color="#2AF6FF"/>
</linearGradient>
<linearGradient id="paint33_linear_1857_1144" x1="78.8988" y1="154.181" x2="199.364" y2="127.1" gradientUnits="userSpaceOnUse">
<stop offset="0.0353535" stop-color="#138BBD"/>
<stop offset="0.2257" stop-color="#169AC7"/>
<stop offset="0.5946" stop-color="#1FC3DF"/>
<stop offset="1" stop-color="#2AF6FF"/>
</linearGradient>
<linearGradient id="paint34_linear_1857_1144" x1="196.862" y1="42.3103" x2="154.076" y2="124.086" gradientUnits="userSpaceOnUse">
<stop offset="0.0353535" stop-color="#138BBD"/>
<stop offset="0.2257" stop-color="#169AC7"/>
<stop offset="0.5946" stop-color="#1FC3DF"/>
<stop offset="1" stop-color="#2AF6FF"/>
</linearGradient>
<linearGradient id="paint35_linear_1857_1144" x1="174.551" y1="141.437" x2="201.405" y2="133.373" gradientUnits="userSpaceOnUse">
<stop offset="0.0353535" stop-color="#9F19AB"/>
<stop offset="0.2438" stop-color="#AE25B1"/>
<stop offset="0.6455" stop-color="#D744BF"/>
<stop offset="1" stop-color="#FF63CE"/>
</linearGradient>
<linearGradient id="paint36_linear_1857_1144" x1="165.663" y1="101.961" x2="156.084" y2="120.269" gradientUnits="userSpaceOnUse">
<stop offset="0.0353535" stop-color="#9F19AB"/>
<stop offset="0.2438" stop-color="#AE25B1"/>
<stop offset="0.6455" stop-color="#D744BF"/>
<stop offset="1" stop-color="#FF63CE"/>
</linearGradient>
<linearGradient id="paint37_linear_1857_1144" x1="157.378" y1="145.401" x2="117.01" y2="136.326" gradientUnits="userSpaceOnUse">
<stop offset="0.0353535" stop-color="#9F19AB"/>
<stop offset="0.2438" stop-color="#AE25B1"/>
<stop offset="0.6455" stop-color="#D744BF"/>
<stop offset="1" stop-color="#FF63CE"/>
</linearGradient>
<linearGradient id="paint38_linear_1857_1144" x1="148.543" y1="102.456" x2="157.957" y2="120.449" gradientUnits="userSpaceOnUse">
<stop offset="0.0353535" stop-color="#9F19AB"/>
<stop offset="0.2438" stop-color="#AE25B1"/>
<stop offset="0.6455" stop-color="#D744BF"/>
<stop offset="1" stop-color="#FF63CE"/>
</linearGradient>
<linearGradient id="paint39_linear_1857_1144" x1="164.984" y1="108.943" x2="174.607" y2="120.094" gradientUnits="userSpaceOnUse">
<stop offset="0.0353535" stop-color="#9F19AB"/>
<stop offset="0.2438" stop-color="#AE25B1"/>
<stop offset="0.6455" stop-color="#D744BF"/>
<stop offset="1" stop-color="#FF63CE"/>
</linearGradient>
<linearGradient id="paint40_linear_1857_1144" x1="161.388" y1="118.091" x2="174.782" y2="99.8469" gradientUnits="userSpaceOnUse">
<stop offset="0.0353535" stop-color="#9F19AB"/>
<stop offset="0.1641" stop-color="#AE25B1"/>
<stop offset="0.4123" stop-color="#D744BF"/>
<stop offset="0.6313" stop-color="#FF63CE"/>
<stop offset="0.8737" stop-color="#DC48C1"/>
</linearGradient>
<linearGradient id="paint41_linear_1857_1144" x1="149.147" y1="109.207" x2="139.524" y2="120.358" gradientUnits="userSpaceOnUse">
<stop offset="0.0353535" stop-color="#9F19AB"/>
<stop offset="0.2438" stop-color="#AE25B1"/>
<stop offset="0.6455" stop-color="#D744BF"/>
<stop offset="1" stop-color="#FF63CE"/>
</linearGradient>
<linearGradient id="paint42_linear_1857_1144" x1="152.742" y1="118.355" x2="139.348" y2="100.111" gradientUnits="userSpaceOnUse">
<stop offset="0.0353535" stop-color="#9F19AB"/>
<stop offset="0.1641" stop-color="#AE25B1"/>
<stop offset="0.4123" stop-color="#D744BF"/>
<stop offset="0.6313" stop-color="#FF63CE"/>
<stop offset="0.8737" stop-color="#DC48C1"/>
</linearGradient>
<linearGradient id="paint43_linear_1857_1144" x1="167.17" y1="117.796" x2="164.751" y2="130.063" gradientUnits="userSpaceOnUse">
<stop offset="0.0353535" stop-color="#9F19AB"/>
<stop offset="0.2438" stop-color="#AE25B1"/>
<stop offset="0.6455" stop-color="#D744BF"/>
<stop offset="1" stop-color="#FF63CE"/>
</linearGradient>
<linearGradient id="paint44_linear_1857_1144" x1="162.58" y1="116.882" x2="171.017" y2="129.342" gradientUnits="userSpaceOnUse">
<stop offset="0.0353535" stop-color="#9F19AB"/>
<stop offset="0.1641" stop-color="#AE25B1"/>
<stop offset="0.4123" stop-color="#D744BF"/>
<stop offset="0.6313" stop-color="#FF63CE"/>
<stop offset="0.8737" stop-color="#DC48C1"/>
</linearGradient>
<linearGradient id="paint45_linear_1857_1144" x1="157.113" y1="122.495" x2="157.113" y2="115.841" gradientUnits="userSpaceOnUse">
<stop offset="0.0353535" stop-color="#9F19AB"/>
<stop offset="0.2438" stop-color="#AE25B1"/>
<stop offset="0.6455" stop-color="#D744BF"/>
<stop offset="1" stop-color="#FF63CE"/>
</linearGradient>
<linearGradient id="paint46_linear_1857_1144" x1="146.537" y1="117.796" x2="148.955" y2="130.063" gradientUnits="userSpaceOnUse">
<stop offset="0.0353535" stop-color="#9F19AB"/>
<stop offset="0.2438" stop-color="#AE25B1"/>
<stop offset="0.6455" stop-color="#D744BF"/>
<stop offset="1" stop-color="#FF63CE"/>
</linearGradient>
<linearGradient id="paint47_linear_1857_1144" x1="151.127" y1="116.882" x2="142.689" y2="129.342" gradientUnits="userSpaceOnUse">
<stop offset="0.0353535" stop-color="#9F19AB"/>
<stop offset="0.1641" stop-color="#AE25B1"/>
<stop offset="0.4123" stop-color="#D744BF"/>
<stop offset="0.6313" stop-color="#FF63CE"/>
<stop offset="0.8737" stop-color="#DC48C1"/>
</linearGradient>
</defs>
</svg>
