<svg width="201" height="189" viewBox="0 0 201 189" fill="none" xmlns="http://www.w3.org/2000/svg">
<path d="M128.875 8.74229L116.815 4.99559L112.322 0L106.41 101.577L129.584 80.9702L128.875 8.74229Z" fill="url(#paint0_linear_1857_4448)"/>
<path d="M38.0713 136.338L106.411 101.577L112.323 0L43.983 34.761L38.0713 136.338Z" fill="url(#paint1_linear_1857_4448)"/>
<path d="M63.6101 121.767L63.3736 149.243L38.0713 136.338L63.6101 121.767Z" fill="url(#paint2_linear_1857_4448)"/>
<path d="M60.7725 43.2949L55.0972 37.2585L43.983 34.7607L38.0713 136.338L63.3736 121.975L60.7725 43.2949Z" fill="url(#paint3_linear_1857_4448)"/>
<path d="M63.3727 149.243L131.476 114.482L129.111 8.74243L60.7715 43.2953L63.3727 149.243Z" fill="url(#paint4_linear_1857_4448)"/>
<path d="M63.137 132.591L130.767 98.2466L131.004 101.577L62.6641 136.338L63.137 132.591Z" fill="#F1F2F2"/>
<path d="M103.573 34.7611C103.573 36.2181 104.756 36.6344 105.938 36.01C107.357 35.3855 108.303 33.7203 108.303 32.2633C108.303 30.8062 107.12 30.39 105.938 31.0144C104.756 31.6389 103.573 33.3041 103.573 34.7611Z" fill="#C7BCD6"/>
<path d="M78.9805 47.2501C78.9805 48.7072 80.1628 49.1235 81.3452 48.499C82.764 47.8746 83.7099 46.2094 83.7099 44.7523C83.7099 43.2953 82.5275 42.879 81.3452 43.5034C79.9264 44.1279 78.9805 45.7931 78.9805 47.2501Z" fill="#C7BCD6"/>
<path d="M104.991 35.1773C106.41 34.5528 107.356 32.8877 107.356 31.4306C107.356 31.2225 107.356 31.0143 107.356 30.8062C108.065 30.8062 108.538 31.4306 108.538 32.2632C108.538 33.7202 107.356 35.3854 106.173 36.0099C104.991 36.6343 104.045 36.218 103.809 35.3854C104.045 35.3854 104.518 35.3854 104.991 35.1773Z" fill="#C7BCD6"/>
<path d="M80.1628 47.4581C81.5816 46.8336 82.5275 45.1684 82.5275 43.7114C82.5275 43.5032 82.5275 43.2951 82.5275 43.0869C83.2369 43.0869 83.7099 43.7114 83.7099 44.544C83.7099 46.001 82.5275 47.6662 81.3452 48.2907C80.1628 48.9151 79.2169 48.4988 78.9805 47.6662C79.4534 47.8744 79.6899 47.8744 80.1628 47.4581Z" fill="#C7BCD6"/>
<path d="M90.5679 72.2281C92.6962 72.2281 94.5879 71.8118 96.4797 70.771C103.101 67.0243 106.884 60.7798 106.884 53.7028V36.6345C106.884 36.01 106.411 35.5938 105.702 35.5938C104.993 35.5938 104.52 36.01 104.52 36.6345V53.7028C104.52 59.9472 100.973 65.5673 95.0608 68.8977C92.4597 70.3547 89.3855 70.5629 86.5479 69.1058C83.9467 67.8569 82.2915 65.3591 82.2915 62.6532V48.499C82.2915 47.8746 81.8185 47.4583 81.1091 47.4583C80.3997 47.4583 79.9268 47.8746 79.9268 48.499V62.6532C79.9268 66.1917 82.055 69.314 85.602 70.9792C87.2573 71.8118 88.9126 72.2281 90.5679 72.2281Z" fill="#C7BCD6"/>
<path d="M91.0406 68.8975C93.1688 68.8975 95.0606 68.4812 96.9523 67.4405C103.574 63.6938 107.357 57.4493 107.357 50.3722V33.3039C107.357 32.6795 106.884 32.2632 106.175 32.2632C105.465 32.2632 104.992 32.6795 104.992 33.3039V50.3722C104.992 56.6167 101.445 62.2367 95.5335 65.5671C92.9323 67.0242 89.8582 67.2323 87.0206 65.7753C84.4194 64.5264 82.7641 62.0286 82.7641 59.3226V45.1685C82.7641 44.544 82.2912 44.1277 81.5818 44.1277C80.8724 44.1277 80.3994 44.544 80.3994 45.1685V59.3226C80.3994 62.8612 82.5276 65.9834 86.0747 67.6486C87.73 68.6894 89.3853 68.8975 91.0406 68.8975Z" fill="#C7BCD6"/>
<path d="M93.4053 21.4396C93.4053 22.8966 94.5876 23.3129 95.77 22.6885C97.1888 22.064 98.1347 20.3988 98.1347 18.9418C98.1347 17.4847 96.9523 17.0684 95.77 17.6929C94.5876 18.3173 93.4053 19.9825 93.4053 21.4396Z" fill="#C7BCD6"/>
<path d="M68.5762 33.7201C68.5762 35.1771 69.7585 35.5934 70.9409 34.969C72.1232 34.3445 73.3056 32.6793 73.3056 31.2223C73.3056 29.7652 72.1232 29.3489 70.9409 29.9734C69.7585 30.5978 68.5762 32.263 68.5762 33.7201Z" fill="#C7BCD6"/>
<path d="M94.8259 21.6475C96.2447 21.0231 97.1906 19.3579 97.1906 17.9008C97.1906 17.6927 97.1906 17.4845 97.1906 17.2764C97.9 17.2764 98.373 17.9008 98.373 18.7334C98.373 20.1905 97.1906 21.8557 96.0083 22.4801C94.8259 23.1046 93.88 22.6882 93.6436 21.8557C93.88 22.0638 94.353 22.0638 94.8259 21.6475Z" fill="#C7BCD6"/>
<path d="M69.9939 34.1368C71.4127 33.5123 72.3586 31.8471 72.3586 30.3901C72.3586 30.1819 72.3586 29.9738 72.3586 29.7656C73.068 29.7656 73.5409 30.3901 73.5409 31.2227C73.5409 32.6797 72.3586 34.3449 71.1762 34.9694C69.9939 35.5938 69.048 35.1775 68.8115 34.3449C69.048 34.3449 69.5209 34.3449 69.9939 34.1368Z" fill="#C7BCD6"/>
<path d="M96.9506 23.1044V19.9822C96.9506 19.3577 96.4777 18.9414 95.7683 18.9414C95.0589 18.9414 94.5859 19.3577 94.5859 19.9822V24.3533L96.9506 23.1044Z" fill="#C7BCD6"/>
<path d="M72.5952 35.1772V32.0549C72.5952 31.4305 72.1222 31.0142 71.4128 31.0142C70.7034 31.0142 70.2305 31.4305 70.2305 32.0549V36.426L72.5952 35.1772Z" fill="#C7BCD6"/>
<path d="M121.074 61.8205L131.715 58.6983L135.735 54.3271L140.937 115.315L120.364 96.9978L121.074 61.8205Z" fill="url(#paint5_linear_1857_4448)"/>
<path d="M200.999 145.913L140.936 115.315L135.733 54.3271L195.797 84.9251L200.999 145.913Z" fill="url(#paint6_linear_1857_4448)"/>
<path d="M178.535 133.008L179.008 157.361L201 145.913L178.535 133.008Z" fill="url(#paint7_linear_1857_4448)"/>
<path d="M181.136 92.4182L186.102 87.0063L195.797 84.9248L201 145.913L178.771 133.424L181.136 92.4182Z" fill="url(#paint8_linear_1857_4448)"/>
<path d="M179.008 157.361L118.708 126.763L121.073 61.8203L181.136 92.4183L179.008 157.361Z" fill="url(#paint9_linear_1857_4448)"/>
<path d="M179.009 142.582L119.418 112.193L119.182 115.315L179.482 145.913L179.009 142.582Z" fill="#F1F2F2"/>
<path d="M143.3 84.9249C143.3 86.1738 142.355 86.5901 141.172 85.9656C139.99 85.3412 139.044 83.8842 139.044 82.6353C139.044 81.3864 139.99 80.9701 141.172 81.5945C142.355 82.219 143.3 83.676 143.3 84.9249Z" fill="#C7BCD6"/>
<path d="M165.056 95.7486C165.056 96.9975 164.11 97.4138 162.928 96.7894C161.746 96.1649 160.8 94.7079 160.8 93.459C160.8 92.2101 161.746 91.7938 162.928 92.4182C164.11 93.0427 165.056 94.4997 165.056 95.7486Z" fill="#C7BCD6"/>
<path d="M142.119 85.1331C140.937 84.5086 139.991 83.0516 139.991 81.8027C139.991 81.5945 139.991 81.3864 139.991 81.1782C139.282 81.1782 138.809 81.8027 138.809 82.4271C138.809 83.676 139.754 85.1331 140.937 85.7575C141.883 86.1738 142.829 85.9657 143.065 85.3412C142.829 85.5494 142.592 85.3412 142.119 85.1331Z" fill="#C7BCD6"/>
<path d="M163.875 96.1648C162.693 95.5404 161.747 94.0833 161.747 92.8344C161.747 92.6263 161.747 92.4181 161.747 92.21C161.037 92.21 160.564 92.8344 160.564 93.4589C160.564 94.7078 161.51 96.1648 162.693 96.7892C163.639 97.2055 164.584 96.9974 164.821 96.373C164.821 96.373 164.348 96.373 163.875 96.1648Z" fill="#C7BCD6"/>
<path d="M154.889 117.813C152.997 117.813 151.341 117.396 149.686 116.356C144.011 113.025 140.464 107.405 140.464 101.369V86.1739C140.464 85.7576 140.937 85.3413 141.41 85.3413C141.883 85.3413 142.356 85.7576 142.356 86.1739V101.369C142.356 106.781 145.43 111.776 150.632 114.69C152.997 115.939 155.598 116.147 157.963 114.899C160.327 113.858 161.746 111.568 161.746 109.279V96.7895C161.746 96.3732 162.219 95.957 162.692 95.957C163.165 95.957 163.638 96.3732 163.638 96.7895V109.279C163.638 112.401 161.746 115.107 158.672 116.564C157.963 117.604 156.307 117.813 154.889 117.813Z" fill="#C7BCD6"/>
<path d="M154.416 115.107C152.524 115.107 150.869 114.69 149.214 113.65C143.538 110.319 139.991 104.699 139.991 98.6628V83.4679C139.991 83.0516 140.464 82.6353 140.937 82.6353C141.41 82.6353 141.883 83.0516 141.883 83.4679V98.6628C141.883 104.075 144.957 109.07 150.159 111.984C152.524 113.233 155.125 113.441 157.49 112.192C159.855 111.152 161.274 108.862 161.274 106.572V94.0835C161.274 93.6672 161.746 93.2509 162.219 93.2509C162.692 93.2509 163.165 93.6672 163.165 94.0835V106.572C163.165 109.695 161.274 112.401 158.199 113.858C157.49 114.69 155.835 115.107 154.416 115.107Z" fill="#C7BCD6"/>
<path d="M152.288 73.0604C152.288 74.3093 151.342 74.7256 150.16 74.1012C148.977 73.4767 148.031 72.0196 148.031 70.7708C148.031 69.5219 148.977 69.1056 150.16 69.73C151.342 70.3545 152.288 71.8115 152.288 73.0604Z" fill="#C7BCD6"/>
<path d="M174.279 83.8841C174.279 85.133 173.333 85.5493 172.151 84.9249C170.968 84.3004 170.022 82.8434 170.022 81.5945C170.022 80.3456 170.968 79.9293 172.151 80.5537C173.333 81.1782 174.279 82.8434 174.279 83.8841Z" fill="#C7BCD6"/>
<path d="M151.105 73.4771C149.922 72.8526 148.976 71.3956 148.976 70.1467C148.976 69.9385 148.976 69.7304 148.976 69.5222C148.267 69.5222 147.794 70.1467 147.794 70.7711C147.794 72.02 148.74 73.4771 149.922 74.1015C150.868 74.5178 151.814 74.3097 152.05 73.6852C152.05 73.6852 151.577 73.6852 151.105 73.4771Z" fill="#C7BCD6"/>
<path d="M173.096 84.3005C171.913 83.6761 170.968 82.219 170.968 80.9701C170.968 80.762 170.968 80.5539 170.968 80.3457C170.258 80.3457 169.785 80.9701 169.785 81.5946C169.785 82.8435 170.731 84.3005 171.913 84.925C172.859 85.3413 173.805 85.1331 174.042 84.5087C173.805 84.5087 173.332 84.5087 173.096 84.3005Z" fill="#C7BCD6"/>
<path d="M149.212 74.5173V71.8113C149.212 71.395 149.685 70.9788 150.158 70.9788C150.631 70.9788 151.104 71.395 151.104 71.8113V75.558L149.212 74.5173Z" fill="#C7BCD6"/>
<path d="M170.73 85.341V82.6351C170.73 82.2188 171.203 81.8025 171.676 81.8025C172.149 81.8025 172.622 82.2188 172.622 82.6351V86.3818L170.73 85.341Z" fill="#C7BCD6"/>
<path d="M106.411 171.724L69.2852 152.99L114.215 130.926L151.34 149.66L106.411 171.724Z" fill="#E6E7E8"/>
<path d="M106.175 171.515L69.0488 152.574L85.3653 144.248C90.5676 141.542 95.77 138.628 100.736 135.714C102.391 134.673 103.81 133.632 104.992 132.383C106.411 130.926 108.066 129.677 109.722 128.636C109.958 128.428 110.431 128.22 110.668 128.22L113.978 126.555L151.104 145.497L147.084 147.37C147.084 147.37 146.848 147.37 146.848 147.578C145.665 148.203 144.483 149.035 143.301 150.076L139.99 152.99C139.044 153.823 138.098 154.447 136.916 155.071C131.714 158.194 126.511 161.108 121.309 163.814L106.175 171.515Z" fill="white"/>
<g opacity="0.8">
<g opacity="0.8">
<path opacity="0.8" d="M102.157 138.42L101.684 138.212L100.739 138.836L100.266 138.628L101.211 138.004L100.739 137.796L100.975 137.587L102.157 138.212V138.42Z" fill="#6F428A"/>
<path opacity="0.8" d="M101.921 139.461L101.685 139.253V139.044V138.836C101.685 138.836 101.685 138.628 101.921 138.628C101.921 138.628 102.157 138.628 102.157 138.42C102.394 138.42 102.394 138.42 102.63 138.42C102.867 138.42 102.867 138.42 103.103 138.42C103.34 138.42 103.34 138.42 103.576 138.628L103.813 138.836V139.044V139.253C103.813 139.253 103.813 139.461 103.576 139.461C103.576 139.461 103.34 139.461 103.34 139.669C103.103 139.669 103.103 139.669 102.867 139.669C102.63 139.669 102.63 139.669 102.394 139.669C102.157 139.461 102.157 139.461 101.921 139.461ZM102.394 138.836C102.157 138.836 102.157 138.836 102.394 138.836C102.157 139.044 102.157 139.044 102.394 138.836C102.157 139.044 102.157 139.044 102.157 139.044C102.157 139.044 102.157 139.044 102.394 139.044H102.63H102.867C102.867 139.044 102.867 139.044 103.103 139.044C103.103 139.044 103.103 139.044 103.34 139.044H103.103H102.867C102.63 138.836 102.394 138.836 102.394 138.836Z" fill="#6F428A"/>
<path opacity="0.8" d="M104.995 139.877L104.522 139.668L103.576 140.293L103.104 140.085L104.049 139.46L103.576 139.252L103.813 139.044L104.995 139.668V139.877Z" fill="#6F428A"/>
<path opacity="0.8" d="M105.704 139.877L106.177 140.085L105.231 141.126L104.758 140.917L104.995 140.709L104.522 140.501L104.285 140.709L103.812 140.501L105.704 139.877ZM105.231 140.501L105.468 140.085L104.995 140.293L105.231 140.501Z" fill="#6F428A"/>
<path opacity="0.8" d="M105.469 141.126L106.888 140.293L107.361 140.501L106.415 141.126L107.124 141.542L106.888 141.75L105.469 141.126Z" fill="#6F428A"/>
<path opacity="0.8" d="M106.65 134.673C106.65 134.673 106.887 134.673 107.123 134.465C107.36 134.465 107.36 134.465 107.596 134.465C107.833 134.465 107.833 134.465 108.069 134.465C108.306 134.465 108.306 134.465 108.542 134.673C108.779 134.673 108.779 134.881 108.779 134.881V135.089H108.542C108.542 135.089 108.542 135.089 108.542 134.881C108.542 134.881 108.542 134.881 108.542 134.673H108.306H108.069H107.833C107.123 134.673 107.123 134.673 106.65 134.673C106.887 134.881 106.65 134.881 106.65 134.881V135.089V135.297C106.65 135.297 106.65 135.506 106.887 135.506C106.887 135.506 106.887 135.506 107.123 135.506H107.36H107.596H107.833V135.714H107.596H107.36H107.123H106.887L106.65 135.506V135.297V135.089C106.65 134.881 106.65 134.673 106.65 134.673Z" fill="#6F428A"/>
<path opacity="0.8" d="M109.723 135.506L109.014 136.755L108.777 136.547L109.014 136.13L108.304 135.714L107.595 135.922L107.358 135.714L109.723 135.506ZM109.25 136.13L109.723 135.506L108.541 135.714L109.25 136.13Z" fill="#6F428A"/>
<path opacity="0.8" d="M109.251 136.754L110.906 135.922L111.616 136.338C111.616 136.338 111.852 136.338 111.852 136.546C111.852 136.546 111.852 136.546 111.852 136.754C111.852 136.754 111.852 136.754 111.852 136.963C111.852 136.963 111.852 136.963 111.616 137.171H111.379H111.143H110.906H110.67L110.433 137.795L110.197 137.587L110.433 137.171L109.96 136.963L109.251 136.754ZM110.197 136.546L110.67 136.754C110.67 136.754 110.67 136.754 110.906 136.754C110.906 136.754 110.906 136.754 111.143 136.754C111.143 136.754 111.143 136.754 111.379 136.754C111.379 136.754 111.379 136.754 111.616 136.754L111.143 136.546H110.197Z" fill="#6F428A"/>
<path opacity="0.8" d="M110.905 137.587L112.561 136.754L113.033 136.963C113.27 136.963 113.27 137.171 113.27 137.171V137.379V137.587L113.033 137.795C112.797 137.795 112.797 138.003 112.561 138.003C112.324 138.003 112.324 138.003 112.088 138.003C111.851 138.003 111.851 138.003 111.615 138.003C111.378 138.003 111.378 138.003 111.142 137.795L110.905 137.587ZM112.797 137.795C113.033 137.795 113.033 137.795 112.797 137.795C113.033 137.587 113.033 137.587 113.033 137.379V137.171C113.033 137.171 113.033 136.963 112.797 136.963L112.324 136.754L110.905 137.379L111.378 137.587C111.378 137.587 111.615 137.587 111.615 137.795H111.851H112.088C112.561 137.795 112.797 137.795 112.797 137.795Z" fill="#6F428A"/>
<path opacity="0.8" d="M113.034 138.836L114.69 138.003L115.399 138.42C115.399 138.42 115.635 138.42 115.635 138.628C115.635 138.628 115.635 138.628 115.635 138.836C115.635 138.836 115.635 138.836 115.635 139.044C115.635 139.044 115.635 139.044 115.399 139.252H115.162H114.926H114.69H114.453L114.217 139.877L113.98 139.669L114.217 139.252L113.744 139.044L113.034 138.836ZM114.217 138.42L114.69 138.628C114.69 138.628 114.689 138.628 114.926 138.628C114.926 138.628 114.926 138.628 115.162 138.628C115.162 138.628 115.162 138.628 115.399 138.628C115.399 138.628 115.399 138.628 115.635 138.628L115.162 138.42H114.217Z" fill="#6F428A"/>
<path opacity="0.8" d="M116.109 140.085L114.69 139.669L116.346 138.836L117.528 139.461H117.292L116.346 139.044L115.873 139.253L116.582 139.669H116.346L115.636 139.253L115.163 139.461L116.109 140.085Z" fill="#6F428A"/>
<path opacity="0.8" d="M116.819 139.877C116.819 139.877 117.055 139.877 117.292 139.668C117.528 139.668 117.528 139.668 117.765 139.668C118.001 139.668 118.001 139.668 118.238 139.668C118.474 139.668 118.474 139.668 118.711 139.877C118.947 139.877 118.947 140.085 118.947 140.085V140.293H118.711C118.711 140.293 118.711 140.293 118.711 140.085C118.711 139.877 118.711 140.085 118.711 140.085H118.474H118.238H118.001C117.292 139.877 117.055 139.877 116.819 139.877C117.055 140.085 116.819 140.085 116.819 140.085V140.293V140.501C116.819 140.501 116.819 140.501 117.055 140.709C117.055 140.709 117.055 140.709 117.292 140.709H117.528H117.765H118.001V140.917H117.765H117.528H117.292H117.055L116.819 140.709V140.501V140.293C116.582 139.877 116.819 139.877 116.819 139.877Z" fill="#6F428A"/>
<path opacity="0.8" d="M119.182 141.542L117.763 141.126L119.418 140.293L120.6 140.918H120.364L119.418 140.501L118.945 140.71L119.654 141.126H119.418L118.709 140.71L118.236 140.918L119.182 141.542Z" fill="#6F428A"/>
<path opacity="0.8" d="M119.184 141.958L120.839 141.126L121.075 141.334L119.184 141.958Z" fill="#6F428A"/>
<path opacity="0.8" d="M119.893 142.167L121.548 141.334L122.257 141.751C122.257 141.751 122.494 141.751 122.494 141.959C122.494 141.959 122.494 141.959 122.494 142.167C122.494 142.167 122.494 142.167 122.494 142.375C122.494 142.375 122.494 142.375 122.257 142.583H122.021H121.784H121.548H121.311L120.838 142.375L119.893 142.167ZM120.838 141.959L121.311 142.167C121.311 142.167 121.311 142.167 121.548 142.167C121.548 142.167 121.548 142.167 121.784 142.167C121.784 142.167 121.784 142.167 122.021 142.167C122.021 142.167 122.021 142.167 122.257 142.167L121.784 141.959H120.838Z" fill="#6F428A"/>
<path opacity="0.8" d="M123.912 142.791L123.439 142.583L122.021 143.415L121.784 143.207L123.203 142.375L122.73 142.167H122.967L123.912 142.791Z" fill="#6F428A"/>
</g>
<g opacity="0.8">
<path opacity="0.8" d="M131.717 145.08C131.717 145.08 131.48 145.08 131.48 145.289H131.244H131.007H130.771C130.771 145.289 130.534 145.289 130.534 145.08C130.534 145.08 130.534 145.08 130.534 144.872V144.664C130.534 144.664 130.771 144.664 130.771 144.456C130.771 144.456 131.007 144.456 131.007 144.248H131.244H131.48H131.717C131.717 144.248 131.953 144.248 131.953 144.456C131.953 144.456 131.953 144.456 131.953 144.664C131.953 144.872 131.953 144.872 131.717 145.08ZM131.48 145.08C131.48 144.872 131.48 144.872 131.48 145.08C131.717 144.872 131.717 144.872 131.717 144.872C131.717 144.872 131.717 144.872 131.48 144.872H131.244H131.007H130.771C130.771 144.872 130.534 144.872 130.534 145.08C130.534 145.08 130.534 145.08 130.534 145.289C130.534 145.289 130.534 145.289 130.771 145.289H131.007C131.007 145.08 131.244 145.08 131.48 145.08C131.48 145.08 131.244 145.08 131.48 145.08Z" fill="#6F428A"/>
<path opacity="0.8" d="M132.19 145.913L131.244 145.705H131.481L131.717 145.913L132.426 145.497C132.426 145.497 132.426 145.497 132.19 145.497C132.19 145.497 132.19 145.497 131.954 145.497H132.19C132.19 145.497 132.19 145.497 132.426 145.497C132.426 145.497 132.426 145.497 132.663 145.497C132.663 145.497 132.663 145.497 132.899 145.497H133.136L132.19 145.913V145.913Z" fill="#6F428A"/>
<path opacity="0.8" d="M134.317 146.537C134.317 146.537 134.081 146.537 134.081 146.745H133.844H133.608H133.371C133.371 146.745 133.135 146.745 133.135 146.537C133.135 146.537 133.135 146.537 133.135 146.329V146.121C133.135 146.121 133.371 146.121 133.371 145.913C133.371 145.913 133.608 145.913 133.608 145.705H133.844H134.081H134.317C134.317 145.705 134.554 145.705 134.554 145.913C134.554 145.913 134.554 145.913 134.554 146.121C134.554 146.121 134.554 146.329 134.317 146.537C134.317 146.329 134.317 146.329 134.317 146.537ZM134.081 146.329C134.317 146.121 134.317 146.121 134.317 146.121C134.317 146.121 134.317 146.121 134.081 146.121H133.844H133.608H133.371C133.371 146.121 133.135 146.121 133.135 146.329C133.135 146.329 133.135 146.329 133.135 146.537C133.135 146.537 133.135 146.537 133.371 146.537H133.608C133.608 146.537 133.844 146.537 134.081 146.329C134.081 146.329 133.844 146.329 134.081 146.329Z" fill="#6F428A"/>
<path opacity="0.8" d="M134.792 147.162L133.846 146.954H134.082L134.319 147.162L135.028 146.746C135.028 146.746 135.028 146.746 134.792 146.746C134.792 146.746 134.792 146.746 134.555 146.746H134.792C134.792 146.746 134.792 146.746 135.028 146.746C135.028 146.746 135.028 146.746 135.265 146.746C135.265 146.746 135.265 146.746 135.501 146.746H135.738L134.792 147.162V147.162Z" fill="#6F428A"/>
<path opacity="0.8" d="M135.264 147.578C135.5 147.578 135.5 147.37 135.737 147.37H135.973H136.21H136.446H136.683C136.683 147.37 136.683 147.37 136.919 147.37C136.919 147.37 136.919 147.37 137.155 147.37C137.155 147.37 137.155 147.37 136.919 147.37C136.919 147.37 136.919 147.37 136.683 147.37C136.683 147.37 136.682 147.37 136.446 147.37V147.162C136.446 147.162 136.446 147.162 136.683 147.162H136.919H137.155C137.155 147.162 137.155 147.162 137.392 147.162C137.392 147.162 137.392 147.162 137.155 147.162H136.919H136.683C136.683 147.162 136.682 147.162 136.446 147.162C136.446 147.162 136.446 147.162 136.21 147.162H135.973H135.737C135.737 147.162 135.737 147.162 135.5 147.162L136.21 147.578H135.973H135.264Z" fill="#6F428A"/>
<path opacity="0.8" d="M138.101 148.41C138.101 148.41 137.865 148.41 137.865 148.619H137.628H137.392H137.155C137.155 148.619 136.919 148.619 136.919 148.41C136.919 148.41 136.919 148.41 136.919 148.202V147.994C136.919 147.994 137.155 147.994 137.155 147.786C137.155 147.786 137.392 147.786 137.392 147.578H137.628H137.865H138.101C138.101 147.578 138.338 147.578 138.338 147.786C138.338 147.786 138.338 147.786 138.338 147.994C138.338 147.994 138.338 148.202 138.101 148.41C138.101 148.202 138.101 148.202 138.101 148.41ZM137.865 148.202C138.101 147.994 138.101 147.994 138.101 147.994C138.101 147.994 138.101 147.994 137.865 147.994H137.628H137.392H137.155C137.155 147.994 136.919 147.994 136.919 148.202C136.919 148.202 136.919 148.202 136.919 148.41C136.919 148.41 136.919 148.41 137.155 148.41H137.392C137.392 148.41 137.628 148.41 137.865 148.202C137.865 148.202 137.628 148.41 137.865 148.202Z" fill="#6F428A"/>
<path opacity="0.8" d="M138.574 149.035L137.628 148.827H137.864L138.101 149.035L138.81 148.619C138.81 148.619 138.81 148.619 138.574 148.619C138.574 148.619 138.574 148.619 138.337 148.619H138.574C138.574 148.619 138.574 148.619 138.81 148.619C138.81 148.619 138.81 148.619 139.047 148.619C139.047 148.619 139.047 148.619 139.283 148.619H139.52L138.574 149.035V149.035Z" fill="#6F428A"/>
<path opacity="0.8" d="M139.284 148.827H139.52H139.757H139.993H140.23C140.23 148.827 140.466 148.827 140.466 149.035C140.466 149.035 140.466 149.035 140.466 149.243V149.451L140.23 149.66C139.993 149.66 139.993 149.868 139.757 149.868C139.52 149.868 139.52 149.868 139.284 149.868C139.047 149.868 139.047 149.868 139.047 149.868H138.811L138.574 149.66V149.451H138.811C138.811 149.451 138.811 149.451 138.811 149.66C138.811 149.66 138.811 149.66 139.047 149.868C139.047 149.868 139.284 149.868 139.52 149.868C139.757 149.868 139.757 149.868 139.993 149.66H139.757H139.52C139.52 149.66 139.284 149.66 139.284 149.451C139.284 149.451 139.284 149.451 139.284 149.243C139.047 149.035 139.047 149.035 139.284 148.827C139.047 148.827 139.047 149.035 139.284 148.827ZM139.993 149.035C139.993 149.035 139.993 148.827 139.993 149.035C139.757 149.035 139.757 149.035 139.757 149.035H139.52C139.52 149.035 139.52 149.035 139.284 149.035C139.284 149.035 139.284 149.035 139.52 149.035H139.757H139.993C139.993 149.035 139.993 149.035 140.23 149.035C140.23 149.243 140.23 149.243 139.993 149.035C140.23 149.035 140.23 149.035 139.993 149.035C140.23 149.035 140.23 149.035 139.993 149.035Z" fill="#6F428A"/>
<path opacity="0.8" d="M128.643 145.705L128.17 145.497L126.751 146.121H126.515L127.933 145.497L127.461 145.289H127.697L128.643 145.705Z" fill="#6F428A"/>
<path opacity="0.8" d="M127.697 146.329L129.116 145.497H129.353L127.697 146.329Z" fill="#6F428A"/>
<path opacity="0.8" d="M129.352 147.37L130.535 146.746L129.116 146.954L129.589 146.329L128.406 146.954H128.17L129.589 146.121H129.825L129.352 146.954L130.771 146.746H131.008L129.352 147.37Z" fill="#6F428A"/>
<path opacity="0.8" d="M131.244 147.995L130.062 147.578L131.48 146.746L132.426 147.162H132.19L131.48 146.746L131.007 146.954L131.717 147.37H131.48H130.771L130.298 147.578L131.244 147.995Z" fill="#6F428A"/>
<path opacity="0.8" d="M131.244 148.202H131.717H131.244ZM131.954 147.786H132.426H131.954Z" fill="#6F428A"/>
<path opacity="0.8" d="M133.136 149.035L132.19 148.827H132.427L132.663 149.035L133.373 148.619C133.373 148.619 133.373 148.619 133.136 148.619C133.136 148.619 133.136 148.619 132.9 148.619H133.136C133.136 148.619 133.136 148.619 133.373 148.619C133.373 148.619 133.373 148.619 133.609 148.619C133.609 148.619 133.609 148.619 133.846 148.619H134.082L133.136 149.035V149.035Z" fill="#6F428A"/>
<path opacity="0.8" d="M134.555 149.451C134.555 149.451 134.319 149.451 134.555 149.451C134.319 149.451 134.082 149.451 134.082 149.451H133.846H133.61C133.61 149.451 133.373 149.451 133.373 149.243C133.373 149.243 133.373 149.243 133.373 149.035C133.373 149.035 133.373 149.035 133.373 148.827C133.373 148.827 133.373 148.827 133.61 148.619C133.61 148.619 133.609 148.619 133.846 148.619C133.846 148.619 133.846 148.619 134.082 148.619C134.082 148.619 134.082 148.619 134.319 148.619C134.319 148.619 134.319 148.619 134.555 148.619H134.792H135.028H135.265H135.501C135.501 148.619 135.501 148.619 135.738 148.619C135.738 148.619 135.738 148.619 135.738 148.827C135.738 148.827 135.738 148.827 135.738 149.035C135.738 149.035 135.738 149.035 135.501 149.243H135.265H135.028C134.555 149.243 134.555 149.243 134.555 149.451C134.555 149.451 134.555 149.243 134.555 149.451ZM134.319 149.451C134.319 149.243 134.319 149.243 134.319 149.451C134.555 149.243 134.555 149.243 134.319 149.451C134.319 149.243 134.319 149.243 134.319 149.243C134.319 149.243 134.319 149.243 134.082 149.243C134.082 149.243 134.082 149.243 133.846 149.243C133.846 149.243 133.846 149.243 133.61 149.243C133.61 149.243 133.61 149.243 133.373 149.243C133.373 149.243 133.373 149.243 133.61 149.243C133.61 149.243 133.609 149.243 133.846 149.243C134.082 149.451 134.082 149.451 134.319 149.451ZM134.319 148.619C134.319 148.827 134.319 148.827 134.319 148.619C134.319 148.827 134.319 148.827 134.319 148.619C134.319 148.827 134.319 148.827 134.319 148.619C134.319 148.827 134.319 148.827 134.319 148.827C134.319 148.827 134.319 148.827 134.555 148.827C134.555 148.827 134.555 148.827 134.792 148.827C134.792 148.827 134.792 148.827 135.028 148.827C135.028 148.827 135.028 148.827 134.792 148.827C134.792 148.827 134.792 148.827 134.555 148.827C134.555 148.619 134.555 148.619 134.319 148.619C134.319 148.619 134.555 148.619 134.319 148.619Z" fill="#6F428A"/>
<path opacity="0.8" d="M134.317 149.868H134.79H134.317ZM135.263 149.452H135.736H135.263Z" fill="#6F428A"/>
<path opacity="0.8" d="M135.737 150.076C135.974 150.076 135.974 150.284 135.737 150.076C135.737 150.284 135.737 150.284 135.737 150.493H135.501H135.264H135.028H134.791L134.555 150.284V150.076H134.791C134.791 150.076 134.791 150.076 134.791 150.284C134.791 150.284 134.791 150.284 135.028 150.493H135.264H135.501C135.737 150.284 135.737 150.284 135.737 150.076C135.501 150.076 135.501 150.076 135.501 150.076H135.737C135.974 150.076 135.737 149.868 135.737 150.076C135.974 150.076 135.973 150.076 136.21 149.868C136.21 149.868 136.21 149.868 136.21 149.66C136.21 149.66 136.21 149.66 135.974 149.452H135.737H135.501V149.244C135.501 149.244 135.501 149.244 135.737 149.244H135.974H136.21C136.21 149.244 136.21 149.244 136.446 149.244C136.446 149.244 136.446 149.244 136.683 149.452C136.683 149.452 136.683 149.452 136.683 149.66C136.683 149.66 136.683 149.66 136.683 149.868C136.683 149.868 136.683 149.868 136.446 149.868C136.446 149.868 136.446 149.868 136.21 149.868C136.21 150.076 135.974 150.076 135.737 150.076C135.974 150.076 135.974 150.076 135.737 150.076Z" fill="#6F428A"/>
<path opacity="0.8" d="M137.628 150.909C137.628 150.909 137.391 150.909 137.391 151.117H137.155H136.918H136.682C136.682 151.117 136.445 151.117 136.445 150.909C136.445 150.909 136.445 150.909 136.445 150.701V150.492C136.445 150.492 136.682 150.492 136.682 150.284C136.682 150.284 136.918 150.284 136.918 150.076H137.155H137.391H137.628C137.628 150.076 137.864 150.076 137.864 150.284C137.864 150.284 137.864 150.284 137.864 150.492C137.864 150.492 137.864 150.701 137.628 150.909C137.628 150.701 137.628 150.701 137.628 150.909ZM137.391 150.701C137.628 150.492 137.628 150.492 137.628 150.492C137.628 150.492 137.628 150.492 137.391 150.492H137.155H136.918H136.682C136.682 150.492 136.445 150.492 136.445 150.701C136.445 150.701 136.445 150.701 136.445 150.909C136.445 150.909 136.445 150.909 136.682 150.909H136.918C136.918 150.909 137.155 150.909 137.391 150.701C137.155 150.701 137.155 150.701 137.391 150.701Z" fill="#6F428A"/>
<path opacity="0.8" d="M125.805 150.7C125.569 150.492 125.569 150.492 125.805 150.7C125.569 150.492 125.568 150.492 125.568 150.492H125.332C125.569 150.7 125.569 150.7 125.805 150.7C125.569 150.908 125.569 150.7 125.805 150.7C125.569 150.908 125.568 150.908 125.568 150.908C125.568 150.908 125.569 150.908 125.332 151.117H125.096H124.859H124.623H124.386L124.15 151.325H123.913L124.15 151.117L123.913 150.908C123.913 150.908 123.913 150.7 123.677 150.7H124.15H124.386C124.386 150.7 124.386 150.7 124.386 150.492C124.386 150.492 124.386 150.492 124.623 150.492H124.859H125.096H125.332H125.568L125.805 150.284H126.041L125.805 150.492V150.7ZM124.859 150.908C124.859 150.908 124.859 150.7 124.859 150.908V150.908ZM125.332 150.492C125.332 150.284 125.332 150.284 125.332 150.492V150.492Z" fill="#6F428A"/>
<path opacity="0.8" d="M125.804 151.117H126.041H126.277H126.514H126.75C126.75 151.117 126.987 151.117 126.987 151.325V151.533C126.987 151.533 126.987 151.741 126.75 151.741L126.514 151.95C126.277 151.95 126.277 152.158 126.041 152.158C125.804 152.158 125.804 152.158 125.568 152.158C125.331 152.158 125.331 152.158 125.331 152.158H125.095C124.858 152.158 124.858 151.95 124.858 151.741H125.331C125.331 151.741 125.331 151.95 125.568 151.95H125.804H126.041H125.804C125.804 151.95 125.568 151.95 125.568 151.741C125.568 151.741 125.568 151.741 125.568 151.533C125.568 151.325 125.568 151.117 125.804 151.117C125.804 151.117 125.568 151.117 125.804 151.117ZM126.514 151.117C126.277 151.117 126.277 151.117 126.514 151.117C126.277 151.117 126.277 151.117 126.277 151.117C126.277 151.117 126.277 151.117 126.514 151.117C126.514 151.325 126.277 151.533 126.514 151.117C126.514 151.325 126.514 151.325 126.514 151.117C126.514 151.325 126.514 151.325 126.514 151.117C126.514 151.325 126.514 151.325 126.514 151.117C126.514 151.325 126.514 151.325 126.514 151.117Z" fill="#6F428A"/>
<path opacity="0.8" d="M127.462 151.949C127.698 151.949 127.698 151.949 127.462 151.949C127.698 152.157 127.698 152.158 127.698 152.158C127.698 152.158 127.698 152.157 127.698 152.366C127.698 152.366 127.698 152.366 127.462 152.574H127.225H126.989H126.752H126.516L126.279 152.366V152.158H126.752C126.752 152.158 126.752 152.157 126.752 152.366C126.752 152.366 126.752 152.366 126.989 152.366C126.989 152.366 126.989 152.366 127.225 152.366L126.989 152.158L128.171 151.741L128.88 152.158L128.408 152.366L127.462 151.949Z" fill="#6F428A"/>
<path opacity="0.8" d="M127.462 152.574L127.935 152.365L128.171 152.574L127.698 152.782L127.462 152.574Z" fill="#6F428A"/>
<path opacity="0.8" d="M129.827 153.198C129.827 153.198 129.59 153.198 129.59 153.406H129.354H129.117H128.881C128.881 153.406 128.645 153.406 128.645 153.198C128.645 153.198 128.645 153.198 128.645 152.99V152.782C128.645 152.782 128.881 152.782 128.881 152.574C128.881 152.574 129.117 152.574 129.117 152.365H129.354H129.59H129.827C129.827 152.365 130.063 152.365 130.063 152.574C130.063 152.574 130.063 152.574 130.063 152.782C130.063 152.782 130.063 152.99 129.827 153.198C129.827 152.99 129.827 152.99 129.827 153.198ZM129.354 152.99C129.354 152.782 129.59 152.782 129.354 152.99C129.59 152.782 129.59 152.782 129.354 152.782C129.354 152.782 129.354 152.782 129.117 152.782H128.881C128.881 152.782 128.645 152.782 128.645 152.99C128.645 152.99 128.645 152.99 128.881 152.99C129.117 152.99 129.354 152.99 129.354 152.99Z" fill="#6F428A"/>
<path opacity="0.8" d="M131.009 153.822C131.009 153.822 130.772 153.822 130.772 154.031H130.536H130.299H130.063C130.063 154.031 129.826 154.031 129.826 153.822C129.826 153.822 129.826 153.822 129.826 153.614V153.406C129.826 153.406 130.063 153.406 130.063 153.198C130.063 153.198 130.299 153.198 130.299 152.99H130.536H130.772H131.009C131.009 152.99 131.245 152.99 131.245 153.198C131.245 153.198 131.245 153.198 131.245 153.406C131.245 153.614 131.245 153.614 131.009 153.822C131.245 153.822 131.245 153.614 131.009 153.822ZM130.772 153.614C130.772 153.614 130.772 153.406 130.772 153.614C131.008 153.406 131.009 153.406 131.009 153.406C131.009 153.406 131.008 153.406 130.772 153.406H130.536C130.536 153.406 130.299 153.406 130.299 153.614C130.299 153.614 130.299 153.614 130.536 153.614C130.536 153.614 130.536 153.614 130.772 153.614Z" fill="#6F428A"/>
</g>
<g opacity="0.8">
<path opacity="0.8" d="M103.91 135.278L103.792 135.458L137.991 152.839L138.109 152.658L103.91 135.278Z" fill="#6F428A"/>
</g>
<g opacity="0.8">
<path opacity="0.8" d="M95.4434 140.151L95.3252 140.331L129.524 157.712L129.642 157.532L95.4434 140.151Z" fill="#6F428A"/>
</g>
<g opacity="0.8">
<path opacity="0.8" d="M107.595 155.072L104.048 156.945L107.595 158.818L111.142 156.945L107.595 155.072ZM107.595 157.986L104.994 156.737L107.595 155.488L110.197 156.737L107.595 157.986ZM104.521 155.072L104.994 155.28L105.467 155.072L104.994 154.864L104.521 155.072ZM109.014 156.737L107.595 155.904L106.177 156.737L107.595 157.57L109.014 156.737ZM100.974 154.655L100.501 154.864L101.447 155.28L101.92 155.072L101.447 154.864L101.92 154.655L104.521 155.904L104.994 155.696L103.575 154.864L104.048 154.655L103.575 154.447L103.102 154.655L102.63 154.447L103.102 154.239L103.575 154.447L104.048 154.239L104.521 154.447L104.994 154.239L105.94 154.655L105.467 154.864L105.94 155.072L106.886 154.655L104.285 153.407L103.812 153.615L103.339 153.407L103.812 153.198L103.339 152.99L102.866 153.198L102.393 152.99L101.92 153.198L102.393 153.407L101.92 153.615L101.447 153.407L100.974 153.615L101.92 154.031L100.974 154.655ZM100.501 152.366L99.0825 151.533L97.6636 152.366L99.0825 153.198L100.501 152.366ZM102.63 152.366L99.0825 150.492L95.5354 152.366L99.0825 154.239L102.63 152.366ZM99.0825 153.823L96.4813 152.574L99.0825 151.325L101.684 152.574L99.0825 153.823ZM100.974 154.239L100.501 154.031L99.5554 154.447L100.028 154.655L100.974 154.239ZM102.63 155.488L102.157 155.696L102.63 155.904L103.102 155.696L102.63 155.488ZM103.102 156.737L104.048 156.321L103.575 156.112L103.102 156.321L102.63 156.112L102.157 156.321L103.102 156.737ZM103.102 157.778L103.575 157.986L104.521 157.57L104.048 157.361L103.575 157.153L103.102 157.361L103.575 157.57L103.102 157.778ZM106.649 158.61L106.177 158.402L105.231 158.818L105.704 159.027L106.649 158.61ZM97.1907 154.655L96.7178 154.864L97.1907 155.072L97.6636 154.864L97.1907 154.655ZM105.231 158.818L104.758 158.61L105.704 158.194L105.231 157.986L103.812 158.818L104.758 159.235L105.231 158.818ZM103.575 158.61L103.102 158.402L102.63 158.61L103.102 158.818L103.575 158.61ZM104.521 159.651L104.994 159.859L105.467 159.651L104.994 159.443L104.521 159.651ZM95.5354 154.447L96.0083 154.655L96.4813 154.447L96.0083 154.239L96.4813 154.031L95.5354 153.615L96.0083 153.407L95.5354 153.198L95.0624 153.407L94.5895 153.198L94.1166 153.407L94.5895 153.615L94.1166 153.823L93.6436 153.615L92.2248 154.447L93.1707 154.864L93.6436 154.655L93.1707 154.447L93.6436 154.239L94.1166 154.447L94.5895 154.239L95.0624 154.447L94.1166 154.864L95.0624 155.28L94.5895 155.488L95.0624 155.696L95.5354 155.488L96.4813 155.904L96.9542 155.696L94.826 154.655L95.5354 154.447ZM103.575 159.651L104.048 159.443L103.102 159.027L102.63 159.235L103.575 159.651ZM103.575 160.067L104.048 159.859L103.575 159.651L103.102 159.859L103.575 160.067ZM91.9884 154.655L91.5154 154.447L91.0425 154.655L91.5154 154.864L91.9884 154.655ZM94.1166 155.696L94.5895 155.488L94.1166 155.28L93.1707 155.696L94.1166 156.112L94.5895 155.904L95.0624 156.112L95.5354 155.904L95.0624 155.696L94.5895 155.904L94.1166 155.696ZM103.102 160.275L102.63 160.067L103.102 159.859L102.157 159.443L101.684 159.651L101.211 159.443L101.684 159.235L102.157 159.443L102.63 159.235L102.157 159.027L102.63 158.818L102.157 158.61L102.63 158.402L101.211 157.57L101.684 157.361L102.63 157.778L103.102 157.57L101.684 156.737L100.738 157.153L100.265 156.945L100.738 156.737L100.265 156.529L99.3189 156.945L99.7918 157.153L99.3189 157.361L99.7918 157.57L100.265 157.361L100.738 157.57L100.028 157.778L101.447 158.61L100.501 159.027L100.028 158.818L99.5554 159.027L99.0825 159.235L98.6095 159.443L99.0825 159.651L99.5554 159.443L100.028 159.235L100.501 159.027L100.974 159.235L99.0825 160.275L97.6636 159.443L99.5554 158.402L99.0825 158.194L99.5554 157.986L99.0825 157.778L98.6095 157.986L98.1366 157.778L98.6095 157.57L98.1366 157.361L97.6636 157.57L97.1907 157.361L97.6636 157.153L97.1907 156.945L98.1366 156.529L98.6095 156.737L98.1366 156.945L98.6095 157.153L99.0825 156.945L98.6095 156.737L99.0825 156.529L99.5554 156.321L100.028 156.529L100.501 156.321L100.974 156.529L101.447 156.321L100.501 155.904L100.028 155.696L99.5554 155.488L100.028 155.28L97.4271 154.031L96.9542 154.239L98.373 155.072L96.9542 155.904L97.4271 156.112L96.4813 156.529L96.0083 156.321L94.1166 157.361L94.5895 157.57L95.5354 157.153L96.0083 157.361L95.5354 157.57L96.0083 157.778L95.5354 157.986L96.4813 158.402L96.9542 158.194L97.4271 158.402L98.373 157.986L98.846 158.194L97.9001 158.61L97.4271 158.402L96.4813 158.818L96.9542 159.027L96.4813 159.235L97.9001 160.067L97.4271 160.275L96.4813 159.859L96.0083 160.067L95.5354 159.859L95.0624 160.067L96.0083 160.484L96.4813 160.275L96.9542 160.484L96.4813 160.692L96.0083 160.484L95.5354 160.692L98.1366 161.941L98.6095 161.732L98.1366 161.524L98.6095 161.316L99.0825 161.524L98.6095 161.732L99.0825 161.941L100.028 161.524L99.5554 161.316L100.028 161.108L100.501 161.316L100.974 161.108L100.028 160.692L99.5554 160.9L99.0825 160.692L98.6095 160.9L98.1366 160.692L98.6095 160.484L99.0825 160.692L100.028 160.275L100.974 160.692L101.447 160.484L102.393 160.9L102.866 160.692L102.393 160.484L103.102 160.275ZM96.4813 157.57L96.0083 157.361L96.4813 157.153L96.9542 157.361L96.4813 157.57ZM97.6636 157.986L97.1907 157.778L97.6636 157.57L98.1366 157.778L97.6636 157.986ZM98.1366 161.316L97.6636 161.524L97.1907 161.316L97.6636 161.108L98.1366 161.316ZM102.157 160.275L101.211 159.859L101.684 159.651L102.63 160.067L102.157 160.275ZM87.0225 156.737L90.5695 158.61L94.1166 156.737L90.5695 154.864L87.0225 156.737ZM90.5695 155.488L93.1707 156.737L90.5695 157.986L87.9683 156.737L90.5695 155.488ZM89.1507 156.737L90.5695 157.57L91.9884 156.737L90.5695 155.904L89.1507 156.737ZM91.0425 158.818L93.6436 160.067L94.1166 159.859L92.6977 159.027L93.6436 158.61L93.1707 158.402L94.1166 157.986L93.6436 157.778L91.0425 158.818ZM95.5354 159.027L96.0083 158.818L94.5895 157.986L95.0624 157.778L94.5895 157.57L94.1166 157.778L94.5895 157.986L94.1166 158.194L94.5895 158.402L94.1166 158.61L95.0624 159.027L94.5895 159.235L95.5354 159.651L96.4813 159.235L95.5354 159.027ZM100.738 162.149L101.211 161.941L100.738 161.732L100.028 161.941L100.738 162.149ZM94.1166 160.275L94.5895 160.484L95.0624 160.275L94.5895 160.067L94.1166 160.275Z" fill="#6F428A"/>
</g>
<g opacity="0.8">
<path opacity="0.8" d="M99.7901 146.746L99.0807 146.329L97.1889 147.37L96.4795 146.954L98.3712 145.913L97.6618 145.497L98.3712 145.289L100.5 146.329L99.7901 146.746Z" fill="#6F428A"/>
<path opacity="0.8" d="M102.864 147.786L100.263 149.035L99.5537 148.619L100.5 148.203L99.5537 147.786L98.6078 148.203L97.8984 147.786L100.5 146.538L101.209 146.954L100.263 147.37L101.209 147.786L102.155 147.37L102.864 147.786Z" fill="#6F428A"/>
<path opacity="0.8" d="M104.047 148.203L104.756 148.619L103.101 150.284L102.392 149.868L102.628 149.452L101.919 149.035L101.209 149.243L100.5 148.827L104.047 148.203ZM102.865 149.243L103.338 148.827L102.392 149.035L102.865 149.243Z" fill="#6F428A"/>
<path opacity="0.8" d="M104.991 150.076L103.809 150.701L103.1 150.284L105.701 149.035L106.174 149.244L105.937 150.492L107.12 149.868L107.829 150.284L105.228 151.533L104.755 151.325L104.991 150.076Z" fill="#6F428A"/>
<path opacity="0.8" d="M105.938 151.741L108.54 150.492L109.249 150.908L108.303 151.325H109.959L110.668 151.741H108.54L108.067 152.99L107.357 152.574L107.594 151.741H107.121L106.411 152.157L105.938 151.741Z" fill="#6F428A"/>
<path opacity="0.8" d="M111.849 152.366L111.14 153.198L112.795 152.782L113.504 153.198L110.903 153.615L109.957 154.031L109.484 153.615L110.43 153.198L111.14 151.949L111.849 152.366Z" fill="#6F428A"/>
<path opacity="0.8" d="M112.322 155.072C112.086 155.072 112.086 154.864 111.849 154.655C111.849 154.447 111.613 154.447 111.849 154.239C111.849 154.031 111.849 154.031 112.086 153.823C112.086 153.615 112.322 153.615 112.559 153.615C112.795 153.615 113.032 153.406 113.032 153.406C113.268 153.406 113.505 153.406 113.741 153.406C113.977 153.406 114.214 153.406 114.45 153.406C114.687 153.406 114.923 153.615 115.16 153.615C115.396 153.615 115.396 153.823 115.633 154.031C115.633 154.239 115.869 154.239 115.633 154.447C115.633 154.655 115.633 154.655 115.396 154.864C115.396 155.072 115.16 155.072 114.923 155.072C114.687 155.072 114.45 155.28 114.45 155.28C114.214 155.28 113.977 155.28 113.741 155.28C113.505 155.28 113.268 155.28 113.032 155.28C112.559 155.28 112.322 155.072 112.322 155.072ZM113.032 154.031C112.795 154.031 112.795 154.239 113.032 154.031C112.795 154.239 112.795 154.239 112.795 154.239V154.447C112.795 154.447 112.795 154.655 113.032 154.655H113.268H113.505H113.741C113.741 154.655 113.977 154.655 113.977 154.447C113.977 154.447 114.214 154.447 114.214 154.239V154.031V153.823C114.214 153.823 114.214 153.615 113.977 153.615H113.741H113.505H113.268C113.032 154.031 113.032 154.031 113.032 154.031Z" fill="#6F428A"/>
<path opacity="0.8" d="M115.395 156.112H115.632H115.868H116.105C116.105 156.112 116.341 156.112 116.341 155.904L117.524 155.28L118.233 155.696L117.051 156.321C116.814 156.321 116.578 156.529 116.578 156.529C116.341 156.529 116.105 156.529 115.868 156.529C115.632 156.529 115.395 156.529 115.159 156.529C114.922 156.529 114.686 156.321 114.45 156.321C114.213 156.321 114.213 156.112 113.977 155.904C113.977 155.696 113.977 155.696 113.977 155.488C113.977 155.488 113.977 155.28 114.213 155.28C114.213 155.28 114.45 155.072 114.686 155.072L115.868 154.447L116.578 154.864L115.395 155.488C115.395 155.488 115.159 155.488 115.159 155.696C115.159 155.696 115.159 155.696 114.922 155.904C115.395 155.904 115.395 155.904 115.395 156.112C115.395 156.112 115.395 155.904 115.395 156.112Z" fill="#6F428A"/>
<path opacity="0.8" d="M116.58 157.153L117.289 156.737L117.999 157.153L117.289 157.569L116.58 157.153ZM117.526 156.737L118.945 155.904L119.654 156.321L118.235 157.153L117.526 156.737Z" fill="#6F428A"/>
</g>
</g>
<g opacity="0.8">
<path opacity="0.8" d="M114.45 130.926C114.213 130.926 114.213 130.718 113.977 130.718C113.977 130.51 113.977 130.51 113.977 130.302C113.977 130.094 113.977 130.094 114.213 129.886L114.45 129.677C114.686 129.677 114.686 129.469 114.922 129.469C115.159 129.469 115.395 129.469 115.632 129.469C115.868 129.469 116.105 129.469 116.341 129.469C116.578 129.469 116.814 129.677 116.814 129.677C117.051 129.677 117.051 129.886 117.287 129.886C117.287 130.094 117.287 130.094 117.287 130.302C117.287 130.51 117.287 130.51 117.051 130.718L116.814 130.926C116.578 130.926 116.578 131.134 116.341 131.134C116.105 131.134 115.868 131.134 115.632 131.134C115.395 131.134 115.159 131.134 114.922 131.134C114.686 131.134 114.686 130.926 114.45 130.926ZM115.159 130.094C114.922 130.094 114.922 130.094 115.159 130.094C114.922 130.302 114.922 130.302 114.922 130.302C114.922 130.302 114.922 130.302 114.922 130.51C114.922 130.51 114.922 130.51 115.159 130.718H115.395H115.632H115.868H116.105C116.105 130.718 116.341 130.718 116.341 130.51C116.341 130.51 116.341 130.51 116.341 130.302C116.341 130.302 116.341 130.302 116.341 130.094C116.341 130.094 116.341 130.094 116.105 129.886H115.868H115.632H115.395C115.159 129.886 115.159 129.886 115.159 130.094Z" fill="#6F428A"/>
<path opacity="0.8" d="M117.759 131.343L116.577 131.967L115.867 131.551L118.232 130.302L118.705 130.51L118.468 131.551L119.651 130.926L120.36 131.343L117.995 132.592L117.522 132.383L117.759 131.343Z" fill="#6F428A"/>
<path opacity="0.8" d="M118.47 132.8L120.834 131.551L121.544 131.967L119.889 132.8L120.834 133.424L120.362 133.632L118.47 132.8Z" fill="#6F428A"/>
<path opacity="0.8" d="M120.361 133.84L122.726 132.592L123.435 133.008L121.071 134.257L120.361 133.84Z" fill="#6F428A"/>
<path opacity="0.8" d="M123.2 134.049L122.018 134.673L121.309 134.257L123.673 133.008L124.146 133.216L123.91 134.257L125.092 133.632L125.802 134.049L123.437 135.297L122.964 135.089L123.2 134.049Z" fill="#6F428A"/>
<path opacity="0.8" d="M126.036 136.13L125.563 136.338L123.908 135.506L126.273 134.257L127.928 135.089L127.455 135.298L126.509 134.881L126.273 135.089L127.219 135.506L126.746 135.714L125.8 135.298L125.327 135.506L126.036 136.13Z" fill="#6F428A"/>
<path opacity="0.8" d="M129.583 136.963C129.583 136.963 129.347 136.754 129.583 136.963C129.347 136.754 129.347 136.754 129.347 136.754C129.347 136.754 129.347 136.754 129.11 136.546C129.11 136.546 129.11 136.546 128.874 136.546C128.874 136.546 128.874 136.546 128.637 136.546C128.637 136.546 128.637 136.546 128.874 136.754L129.11 136.963V137.171V137.379L128.874 137.587C128.637 137.587 128.637 137.795 128.401 137.795C128.164 137.795 128.164 137.795 127.928 137.795C127.691 137.795 127.691 137.795 127.455 137.795C127.218 137.795 127.218 137.795 126.982 137.587C126.982 137.587 126.745 137.587 126.745 137.379L126.509 137.171L126.272 136.963V136.754L127.218 136.546V136.754C127.218 136.754 127.218 136.963 127.455 136.963L127.691 137.171H127.928C127.928 137.171 127.928 137.171 127.928 136.963C127.928 136.963 127.928 136.963 127.691 136.754L127.455 136.546V136.338C127.455 136.338 127.455 136.338 127.455 136.13C127.455 136.13 127.455 136.13 127.691 135.922C127.928 135.922 127.928 135.714 128.164 135.714C128.401 135.714 128.401 135.714 128.637 135.714C128.874 135.714 128.874 135.714 129.11 135.714C129.347 135.714 129.347 135.714 129.583 135.922C129.583 135.922 129.82 135.922 129.82 136.13C129.82 136.13 130.056 136.13 130.056 136.338C130.056 136.338 130.056 136.338 130.292 136.546C130.292 136.546 130.292 136.546 130.292 136.754L129.583 136.963Z" fill="#6F428A"/>
<path opacity="0.8" d="M132.894 138.003L130.53 139.252L129.82 138.836L130.766 138.42L130.057 138.003L129.111 138.42L128.401 138.003L130.766 136.754L131.475 137.171L130.53 137.587L131.239 138.003L132.185 137.587L132.894 138.003Z" fill="#6F428A"/>
<path opacity="0.8" d="M131.947 139.877C131.71 139.877 131.71 139.669 131.474 139.669C131.474 139.46 131.474 139.46 131.474 139.252C131.474 139.044 131.474 139.044 131.71 138.836L131.947 138.628C132.183 138.628 132.183 138.42 132.42 138.42C132.656 138.42 132.892 138.42 133.129 138.42C133.365 138.42 133.602 138.42 133.838 138.42C134.075 138.42 134.311 138.628 134.311 138.628C134.548 138.628 134.548 138.836 134.784 138.836C134.784 139.044 134.784 139.044 134.784 139.252C134.784 139.46 134.784 139.46 134.548 139.669L134.311 139.877C134.075 139.877 134.075 140.085 133.838 140.085C133.602 140.085 133.365 140.085 133.129 140.085C132.892 140.085 132.656 140.085 132.42 140.085C132.42 140.085 132.183 139.877 131.947 139.877ZM132.656 139.044C132.42 139.252 132.42 139.252 132.42 139.252C132.42 139.252 132.42 139.252 132.42 139.46C132.42 139.46 132.42 139.46 132.656 139.669H132.892H133.129H133.365H133.602C133.602 139.669 133.838 139.669 133.838 139.46C133.838 139.46 133.838 139.46 133.838 139.252C133.838 139.252 133.838 139.252 133.838 139.044C133.838 139.044 133.838 139.044 133.602 138.836H133.365H133.129H132.892C132.892 138.836 132.892 139.044 132.656 139.044Z" fill="#6F428A"/>
<path opacity="0.8" d="M133.604 140.501L135.968 139.252L136.914 139.668L137.151 139.877V140.085V140.293L136.914 140.501C136.914 140.501 136.678 140.501 136.441 140.709C136.205 140.709 136.205 140.709 135.968 140.709C135.732 140.709 135.732 140.709 135.495 140.709C135.259 140.709 135.259 140.709 135.022 140.501L134.549 140.293L133.84 140.709L133.604 140.501ZM135.495 140.293L135.732 140.501C135.732 140.501 135.732 140.501 135.968 140.501H136.205C136.205 140.501 136.441 140.501 136.441 140.293L136.205 140.085L135.495 140.293Z" fill="#6F428A"/>
<path opacity="0.8" d="M135.495 141.542L137.86 140.293L138.806 140.709L139.042 140.917V141.126V141.334L138.806 141.542C138.806 141.542 138.569 141.542 138.333 141.75C138.096 141.75 138.096 141.75 137.86 141.75C137.623 141.75 137.623 141.75 137.387 141.75C137.15 141.75 137.15 141.75 136.914 141.542L136.441 141.334L135.732 141.75L135.495 141.542ZM137.387 141.334L137.623 141.542C137.623 141.542 137.623 141.542 137.86 141.542H138.096C138.096 141.542 138.333 141.542 138.333 141.334L138.096 141.126L137.387 141.334Z" fill="#6F428A"/>
<path opacity="0.8" d="M137.624 142.583L139.989 141.334L140.698 141.75L138.333 142.999L137.624 142.583Z" fill="#6F428A"/>
<path opacity="0.8" d="M140.461 142.999L139.279 143.623L138.569 143.207L140.934 141.958L141.407 142.166L141.171 143.207L142.353 142.582L143.062 142.999L140.698 144.248L140.225 144.04L140.461 142.999Z" fill="#6F428A"/>
<path opacity="0.8" d="M142.827 145.081C142.59 145.081 142.354 145.081 142.117 144.872C141.881 144.872 141.881 144.664 141.881 144.664L141.645 144.456C141.645 144.248 141.645 144.248 141.881 144.04C141.881 143.832 142.117 143.832 142.354 143.832C142.59 143.832 142.59 143.624 142.827 143.624C143.063 143.624 143.3 143.624 143.536 143.624C143.773 143.624 144.009 143.624 144.246 143.624C144.482 143.624 144.719 143.832 144.719 143.832L144.955 144.04L145.192 144.248V144.456V144.664H144.246V144.456C144.246 144.456 144.246 144.248 144.009 144.248H143.773H143.536H143.3C143.3 144.248 143.063 144.248 143.063 144.456C143.063 144.456 142.827 144.456 142.827 144.664C142.827 144.664 142.827 144.664 142.827 144.872C142.827 144.872 142.827 144.872 142.827 145.081C142.827 145.081 142.827 145.081 143.063 145.289C143.3 145.289 143.536 145.497 143.773 145.497L143.3 145.289L143.773 145.081L144.719 145.497L143.536 146.121L142.827 145.081Z" fill="#6F428A"/>
</g>
<g opacity="0.8">
<path opacity="0.6" d="M21.0439 172.764L31.6851 178.176L36.651 175.47L26.2463 170.267L21.0439 172.764Z" fill="white"/>
<path opacity="0.8" d="M28.8496 168.809L39.4908 174.221L45.1661 171.307L34.5249 165.895L28.8496 168.809Z" fill="white"/>
<path opacity="0.3" d="M5.20312 180.882L15.8443 186.086L19.8643 184.212L9.22315 178.8L5.20312 180.882Z" fill="white"/>
<path opacity="0.15" d="M0 183.588L10.4047 189L12.5329 187.959L1.89173 182.755L0 183.588Z" fill="white"/>
<path opacity="0.5" d="M13.2432 176.719L23.6479 182.131L28.3773 179.841L17.7362 174.429L13.2432 176.719Z" fill="white"/>
<path opacity="0.8" d="M28.1406 159.859L56.7536 174.429L62.1923 156.945L28.1406 159.859Z" fill="white"/>
</g>
<defs>
<linearGradient id="paint0_linear_1857_4448" x1="140.77" y1="36.6604" x2="60.5834" y2="83.2618" gradientUnits="userSpaceOnUse">
<stop offset="0.0353535" stop-color="#138BBD"/>
<stop offset="0.2257" stop-color="#169AC7"/>
<stop offset="0.5946" stop-color="#1FC3DF"/>
<stop offset="1" stop-color="#2AF6FF"/>
</linearGradient>
<linearGradient id="paint1_linear_1857_4448" x1="84.4112" y1="80.2633" x2="19.2453" y2="-30.3422" gradientUnits="userSpaceOnUse">
<stop offset="0.0353535" stop-color="#138BBD"/>
<stop offset="0.2257" stop-color="#169AC7"/>
<stop offset="0.5946" stop-color="#1FC3DF"/>
<stop offset="1" stop-color="#2AF6FF"/>
</linearGradient>
<linearGradient id="paint2_linear_1857_4448" x1="78.7443" y1="120.606" x2="52.8541" y2="146.987" gradientUnits="userSpaceOnUse">
<stop offset="0.0353535" stop-color="#138BBD"/>
<stop offset="0.2257" stop-color="#169AC7"/>
<stop offset="0.5946" stop-color="#1FC3DF"/>
<stop offset="1" stop-color="#2AF6FF"/>
</linearGradient>
<linearGradient id="paint3_linear_1857_4448" x1="72.5577" y1="71.3597" x2="-7.6294" y2="117.961" gradientUnits="userSpaceOnUse">
<stop offset="0.0353535" stop-color="#138BBD"/>
<stop offset="0.2257" stop-color="#169AC7"/>
<stop offset="0.5946" stop-color="#1FC3DF"/>
<stop offset="1" stop-color="#2AF6FF"/>
</linearGradient>
<linearGradient id="paint4_linear_1857_4448" x1="-33.1413" y1="31.4491" x2="146.354" y2="116.54" gradientUnits="userSpaceOnUse">
<stop offset="0.0353535" stop-color="#138BBD"/>
<stop offset="0.2257" stop-color="#169AC7"/>
<stop offset="0.5946" stop-color="#1FC3DF"/>
<stop offset="1" stop-color="#2AF6FF"/>
</linearGradient>
<linearGradient id="paint5_linear_1857_4448" x1="116.407" y1="74.9136" x2="169.752" y2="105.915" gradientUnits="userSpaceOnUse">
<stop offset="0.0353535" stop-color="#9F19AB"/>
<stop offset="0.2438" stop-color="#AE25B1"/>
<stop offset="0.6455" stop-color="#D744BF"/>
<stop offset="1" stop-color="#FF63CE"/>
</linearGradient>
<linearGradient id="paint6_linear_1857_4448" x1="162.812" y1="107.412" x2="202.323" y2="40.3491" gradientUnits="userSpaceOnUse">
<stop offset="0.0353535" stop-color="#9F19AB"/>
<stop offset="0.2438" stop-color="#AE25B1"/>
<stop offset="0.6455" stop-color="#D744BF"/>
<stop offset="1" stop-color="#FF63CE"/>
</linearGradient>
<linearGradient id="paint7_linear_1857_4448" x1="165.279" y1="132.049" x2="188.102" y2="155.304" gradientUnits="userSpaceOnUse">
<stop offset="0.0353535" stop-color="#9F19AB"/>
<stop offset="0.2438" stop-color="#AE25B1"/>
<stop offset="0.6455" stop-color="#D744BF"/>
<stop offset="1" stop-color="#FF63CE"/>
</linearGradient>
<linearGradient id="paint8_linear_1857_4448" x1="176.537" y1="105.501" x2="229.882" y2="136.503" gradientUnits="userSpaceOnUse">
<stop offset="0.0353535" stop-color="#9F19AB"/>
<stop offset="0.2438" stop-color="#AE25B1"/>
<stop offset="0.6455" stop-color="#D744BF"/>
<stop offset="1" stop-color="#FF63CE"/>
</linearGradient>
<linearGradient id="paint9_linear_1857_4448" x1="247.203" y1="73.842" x2="112.172" y2="137.854" gradientUnits="userSpaceOnUse">
<stop offset="0.0353535" stop-color="#9F19AB"/>
<stop offset="0.2438" stop-color="#AE25B1"/>
<stop offset="0.6455" stop-color="#D744BF"/>
<stop offset="1" stop-color="#FF63CE"/>
</linearGradient>
</defs>
</svg>
